<svg preserveAspectRatio="none" width="100%" height="100%" overflow="visible" style="display: block;" viewBox="0 0 13 13" fill="none" xmlns="http://www.w3.org/2000/svg">
<g id="Group 209">
<g id="Rectangle 32">
</g>
<path id="Vector" d="M10.7142 10.8388H2.28594C1.96221 10.8331 1.65385 10.6993 1.42848 10.4669C1.20311 10.2344 1.07911 9.92211 1.08346 9.59835V3.40707C1.07911 3.08332 1.20311 2.77104 1.42848 2.53857C1.65385 2.30609 1.96221 2.17237 2.28594 2.16667H10.7142C11.0379 2.17237 11.3463 2.30609 11.5716 2.53857C11.797 2.77104 11.9211 3.08332 11.9168 3.40707V9.59835C11.9211 9.92211 11.797 10.2344 11.5716 10.4669C11.3463 10.6993 11.0379 10.8331 10.7142 10.8388V10.8388Z" stroke="var(--stroke-0, white)" stroke-miterlimit="10"/>
<path id="Vector_2" d="M1.0834 4.33333L6.50006 6.5L11.9167 4.33333" stroke="var(--stroke-0, white)" stroke-linejoin="round"/>
</g>
</svg>
