<svg preserveAspectRatio="none" width="100%" height="100%" overflow="visible" style="display: block;" viewBox="0 0 30 30" fill="none" xmlns="http://www.w3.org/2000/svg">
<g id="Group 499">
<g id="Rectangle 32">
</g>
<path id="Vector" d="M24.725 25.012H5.27524C4.52816 24.9988 3.81656 24.6902 3.29648 24.1537C2.7764 23.6173 2.49024 22.8966 2.50027 22.1495V7.86193C2.49024 7.11481 2.7764 6.39417 3.29648 5.85769C3.81656 5.32121 4.52816 5.01261 5.27524 4.99946H24.725C25.4721 5.01261 26.1837 5.32121 26.7038 5.85769C27.2238 6.39417 27.5103 7.11481 27.5003 7.86193V22.1495C27.5103 22.8966 27.2238 23.6173 26.7038 24.1537C26.1837 24.6902 25.4721 24.9988 24.725 25.012V25.012Z" stroke="var(--stroke-0, black)" stroke-width="2.30769" stroke-miterlimit="10"/>
<path id="Vector_2" d="M2.50014 10.0005L15.0001 15.0005L27.5001 10.0005" stroke="var(--stroke-0, black)" stroke-width="2.30769" stroke-linejoin="round"/>
</g>
</svg>
