<svg preserveAspectRatio="none" width="100%" height="100%" overflow="visible" style="display: block;" viewBox="0 0 33.2677 35.2678" fill="none" xmlns="http://www.w3.org/2000/svg">
<g id="Group 39">
<path id="Vector" d="M4.99015 9.31699H28.2775V30.941C28.2775 31.8233 27.9268 32.6694 27.3029 33.2933C26.679 33.9172 25.8331 34.2678 24.9508 34.2678H8.31692C7.43461 34.2678 6.58827 33.9172 5.96438 33.2933C5.34049 32.6694 4.99015 31.8233 4.99015 30.941V9.31699Z" stroke="var(--stroke-0, white)" stroke-width="2" stroke-miterlimit="10"/>
<path id="Vector_2" d="M0 9.31694H6.0712C6.73273 9.3156 7.37893 9.11714 7.92707 8.74677C8.47521 8.37641 8.90055 7.85096 9.14862 7.23771L10.812 3.09589C11.0575 2.47952 11.4816 1.95055 12.0299 1.57708C12.5783 1.20361 13.2256 1.00269 13.889 1.00001H19.3783C20.0417 1.00269 20.6891 1.20361 21.2374 1.57708C21.7858 1.95055 22.2102 2.47952 22.4557 3.09589L24.1191 7.23771C24.3682 7.85359 24.7957 8.38087 25.3471 8.75144C25.8986 9.12202 26.5484 9.31891 27.2128 9.31694H33.2677" stroke="var(--stroke-0, white)" stroke-width="2" stroke-miterlimit="10"/>
</g>
</svg>
