<svg preserveAspectRatio="none" width="100%" height="100%" overflow="visible" style="display: block;" viewBox="0 0 95.4394 101.538" fill="none" xmlns="http://www.w3.org/2000/svg">
<g id="Group 292">
<path id="Vector" d="M66.1896 22.5C66.1896 17.3283 64.1348 12.3684 60.4779 8.7114C56.8209 5.05444 51.8613 3 46.6896 3C41.5178 3 36.5582 5.05444 32.9013 8.7114C29.2443 12.3684 27.1896 17.3283 27.1896 22.5V32.25C27.1896 37.4217 29.2443 42.3816 32.9013 46.0386C36.5582 49.6956 41.5178 51.75 46.6896 51.75C51.8613 51.75 56.8209 49.6956 60.4779 46.0386C64.1348 42.3816 66.1896 37.4217 66.1896 32.25V22.5Z" stroke="var(--stroke-0, #44475C)" stroke-width="6" stroke-miterlimit="10"/>
<path id="Vector_2" d="M2.81456 100.5C10.2246 80.4151 27.1896 66.3751 46.6896 66.3751" stroke="var(--stroke-0, #44475C)" stroke-width="6" stroke-miterlimit="10"/>
<path id="Vector_3" d="M95.4394 81.0001H56.4394" stroke="var(--stroke-0, #44475C)" stroke-width="6" stroke-miterlimit="10"/>
<path id="Vector_4" d="M75.9394 100.5V61.5" stroke="var(--stroke-0, #44475C)" stroke-width="6" stroke-miterlimit="10"/>
</g>
</svg>
