<svg preserveAspectRatio="none" width="100%" height="100%" overflow="visible" style="display: block;" viewBox="0 0 109.5 109.5" fill="none" xmlns="http://www.w3.org/2000/svg">
<g id="Group 64">
<path id="Vector" d="M95 106.5H14.5C11.45 106.5 8.52441 105.289 6.36774 103.132C4.21107 100.976 3 98.05 3 95V14.5C3 11.45 4.21107 8.52511 6.36774 6.36844C8.52441 4.21177 11.45 3 14.5 3H95C98.05 3 100.974 4.21177 103.131 6.36844C105.288 8.52511 106.5 11.45 106.5 14.5V95C106.5 98.05 105.288 100.976 103.131 103.132C100.974 105.289 98.05 106.5 95 106.5Z" stroke="var(--stroke-0, #44475C)" stroke-width="6" stroke-miterlimit="10"/>
<path id="Vector_2" d="M71.9993 49.0002C78.3505 49.0002 83.4993 43.8514 83.4993 37.5002C83.4993 31.1489 78.3505 26.0002 71.9993 26.0002C65.648 26.0002 60.4993 31.1489 60.4993 37.5002C60.4993 43.8514 65.648 49.0002 71.9993 49.0002Z" stroke="var(--stroke-0, #44475C)" stroke-width="6" stroke-miterlimit="10"/>
<path id="Vector_3" d="M71.9993 49.0002C78.3505 49.0002 83.4993 43.8514 83.4993 37.5002C83.4993 31.1489 78.3505 26.0002 71.9993 26.0002C65.648 26.0002 60.4993 31.1489 60.4993 37.5002C60.4993 43.8514 65.648 49.0002 71.9993 49.0002Z" stroke="var(--stroke-0, #44475C)" stroke-width="6" stroke-miterlimit="10"/>
<path id="Vector_4" d="M20.2494 37.5H60.4994" stroke="var(--stroke-0, #44475C)" stroke-width="6" stroke-miterlimit="10"/>
<path id="Vector_5" d="M37.4993 83.5002C43.8505 83.5002 48.9993 78.3514 48.9993 72.0002C48.9993 65.6489 43.8505 60.5002 37.4993 60.5002C31.148 60.5002 25.9993 65.6489 25.9993 72.0002C25.9993 78.3514 31.148 83.5002 37.4993 83.5002Z" stroke="var(--stroke-0, #44475C)" stroke-width="6" stroke-miterlimit="10"/>
<path id="Vector_6" d="M37.4993 83.5002C43.8505 83.5002 48.9993 78.3514 48.9993 72.0002C48.9993 65.6489 43.8505 60.5002 37.4993 60.5002C31.148 60.5002 25.9993 65.6489 25.9993 72.0002C25.9993 78.3514 31.148 83.5002 37.4993 83.5002Z" stroke="var(--stroke-0, #44475C)" stroke-width="6" stroke-miterlimit="10"/>
<path id="Vector_7" d="M89.2493 72H48.9993" stroke="var(--stroke-0, #44475C)" stroke-width="6" stroke-miterlimit="10"/>
</g>
</svg>
