<svg preserveAspectRatio="none" width="100%" height="100%" overflow="visible" style="display: block;" viewBox="0 0 25.5335 31.4168" fill="none" xmlns="http://www.w3.org/2000/svg">
<g id="Group 299">
<path id="Vector" d="M12.7667 30.4168C12.7667 30.4168 1 24.6364 1 12.7667C1 9.646 2.23952 6.6531 4.44621 4.44641C6.6529 2.23972 9.646 1 12.7667 1C15.8875 1 18.8802 2.23972 21.0869 4.44641C23.2936 6.6531 24.5335 9.646 24.5335 12.7667C24.5335 24.6364 12.7667 30.4168 12.7667 30.4168Z" stroke="var(--stroke-0, black)" stroke-width="2" stroke-linejoin="round"/>
<path id="Vector_2" d="M12.7667 17.1789C15.2036 17.1789 17.1792 15.2033 17.1792 12.7664C17.1792 10.3294 15.2036 8.35384 12.7667 8.35384C10.3297 8.35384 8.35415 10.3294 8.35415 12.7664C8.35415 15.2033 10.3297 17.1789 12.7667 17.1789Z" stroke="var(--stroke-0, black)" stroke-width="2" stroke-miterlimit="10"/>
</g>
</svg>
