<svg preserveAspectRatio="none" width="100%" height="100%" overflow="visible" style="display: block;" viewBox="0 0 115.166 115.167" fill="none" xmlns="http://www.w3.org/2000/svg">
<g id="Group 78">
<path id="Vector" d="M52.125 38.4794C45.6151 38.4938 39.3751 41.0862 34.7719 45.6895C30.1686 50.2927 27.5769 56.532 27.5625 63.0419C27.5625 69.5563 30.1495 75.8037 34.7559 80.41C39.3622 85.0164 45.6106 87.6044 52.125 87.6044C55.3526 87.6116 58.5499 86.9809 61.5332 85.7491C64.5165 84.5173 67.2265 82.7083 69.5088 80.426C71.791 78.1438 73.5994 75.4334 74.8312 72.4501C76.063 69.4668 76.6947 66.2695 76.6875 63.0419" stroke="var(--stroke-0, #44475C)" stroke-width="6" stroke-miterlimit="10"/>
<path id="Vector_2" d="M52.1246 71.2295C56.6464 71.2295 60.3121 67.5639 60.3121 63.042C60.3121 58.5202 56.6464 54.8545 52.1246 54.8545C47.6028 54.8545 43.9371 58.5202 43.9371 63.042C43.9371 67.5639 47.6028 71.2295 52.1246 71.2295Z" fill="var(--fill-0, #2E3192)"/>
<path id="Vector_3" d="M52.125 13.9169C39.0962 13.9169 26.6008 19.0923 17.3881 28.305C8.17537 37.5177 3 50.0132 3 63.0419C3 76.0707 8.17537 88.5658 17.3881 97.7785C26.6008 106.991 39.0962 112.167 52.125 112.167C65.1538 112.167 77.6479 106.991 86.8606 97.7785C96.0733 88.5658 101.25 76.0707 101.25 63.0419" stroke="var(--stroke-0, #44475C)" stroke-width="6" stroke-miterlimit="10"/>
<path id="Vector_4" d="M52.1246 63.0419L71.3379 43.8831" stroke="var(--stroke-0, #44475C)" stroke-width="6" stroke-miterlimit="10"/>
<path id="Vector_5" d="M112.166 26.1434L94.4813 43.8284H71.3378V20.685L89.0229 3.00009V26.1434H112.166Z" stroke="var(--stroke-0, #44475C)" stroke-width="6" stroke-linejoin="round"/>
</g>
</svg>
