<svg preserveAspectRatio="xMidYMid meet"  overflow="visible" style="display: block;" viewBox="0 0 25.5433 31.4292" fill="none" xmlns="http://www.w3.org/2000/svg">
<g id="Group 262">
<path id="Vector" d="M24.5433 12.7717V27.4862C24.5433 28.2667 24.2334 29.0153 23.6815 29.5672C23.1296 30.1191 22.3809 30.4292 21.6004 30.4292H3.94291C3.1624 30.4292 2.41408 30.1191 1.86218 29.5672C1.31028 29.0153 1 28.2667 1 27.4862V3.94293C1 3.16242 1.31028 2.41388 1.86218 1.86197C2.41408 1.31007 3.1624 1.00002 3.94291 1.00002H12.7717" stroke="var(--stroke-0, white)" stroke-width="2" stroke-linejoin="round"/>
<path id="Vector_2" d="M24.5433 12.7717H15.7146C14.934 12.7717 14.1857 12.4616 13.6338 11.9097C13.0819 11.3578 12.7716 10.6093 12.7716 9.82877V1.00003L24.5433 12.7717Z" stroke="var(--stroke-0, white)" stroke-width="2" stroke-linejoin="round"/>
</g>
</svg>
