<svg preserveAspectRatio="xMidYMid meet"  overflow="visible" style="display: block;" viewBox="0 0 386 51" fill="none" xmlns="http://www.w3.org/2000/svg">
<g id="Capa_1" clip-path="url(#clip0_83_1202)">
<path id="Vector" d="M182.728 50.8563H1.47834C0.690964 50.8563 0.208896 50.2338 0.417792 49.5474L2.16127 43.9606C2.31393 43.4817 2.64334 43.2103 3.24593 43.2103H184.327C184.801 43.2103 185.034 43.3779 185.219 43.5775C185.46 43.8329 185.548 44.216 185.428 44.5991L183.676 50.154C183.539 50.577 183.25 50.8563 182.712 50.8563H182.728Z" fill="var(--fill-0, white)"/>
<path id="Vector_2" d="M25.6059 0H15.6913L0 35.9394L10.2761 35.9634L13.1042 28.9559L28.0724 28.9798L30.8925 35.9714L41.3534 35.9235L25.6059 0ZM16.0448 21.4535L20.5763 10.1202L25.0997 21.4296L16.0448 21.4535Z" fill="var(--fill-0, white)"/>
<path id="Vector_3" d="M216.296 25.4282L212.624 25.3084L214.368 18.8596L226.387 18.8756L221.494 36.3624C215.621 37.5117 207.362 38.5014 201.802 36.3305C196.869 34.5587 195.744 29.5784 196.298 24.8775C197.471 14.9089 205.449 6.16948 215.87 5.44319C220.016 5.1 224.049 5.57089 228.099 6.5446L226.636 13.9831C223.551 12.6343 220.434 12.0038 217.188 12.1953C213.46 12.5385 210.19 14.2784 208.004 17.2873C205.819 20.2962 203.818 25.8192 205.98 28.8202C207.884 31.462 212.198 31.0948 214.946 30.2728L216.28 25.4362L216.296 25.4282Z" fill="var(--fill-0, white)"/>
<path id="Vector_4" d="M149.152 8.97887C144.861 7.23897 139.977 7.19906 135.662 8.85916C129.99 11.03 126.599 16.2178 126.679 22.1878C126.752 28.0141 130.118 33.0662 135.654 35.1972C139.856 36.8174 144.58 36.8493 148.871 35.1892C154.511 33.0183 157.773 27.8784 157.789 22.0282C157.813 16.2577 154.615 11.1817 149.152 8.97887ZM147.328 25.3563C146.348 27.6469 144.138 28.7563 141.857 28.6207C139.462 28.477 137.526 26.9047 136.843 24.5502C136.321 22.7624 136.337 20.8709 136.956 19.123C137.767 16.8164 139.848 15.4117 142.307 15.4437C144.653 15.4676 146.661 16.7765 147.473 18.9953C148.212 21.0305 148.22 23.2892 147.328 25.3563Z" fill="var(--fill-0, white)"/>
<path id="Vector_5" d="M93.2079 8.73145C89.1826 7.27089 84.8038 7.27089 80.8187 8.83521C75.749 10.8225 72.4307 15.3718 72.0451 20.7592C71.8201 23.9915 72.4629 27.0962 74.2465 29.8019C78.3441 36.0033 86.6919 37.4718 93.4891 35.7559C96.0199 35.1094 98.1973 33.8005 99.9086 31.869L94.7987 26.5216C93.6819 27.4554 92.6535 28.1577 91.368 28.5329C87.7846 29.5704 82.9157 28.7803 81.7588 24.5023L101.692 24.4864C102.624 17.6066 99.8122 11.3254 93.2079 8.73145ZM81.6382 19.3624C81.9837 16.4972 84.4342 14.5258 87.3427 14.6056C90.1066 14.6854 92.3562 16.4892 92.766 19.3465L81.6382 19.3624Z" fill="var(--fill-0, white)"/>
<path id="Vector_6" d="M256.782 25.8352L254.982 5.92207L244.409 5.93803L240.914 11.1817L225.222 33.5052L222.667 37.0089H232.301L237.973 28.1977L248.12 28.2296L248.651 37.0169H257.963L256.782 25.8352ZM241.958 21.5413L247.598 12.8897L248.193 21.5254L241.958 21.5413Z" fill="var(--fill-0, white)"/>
<path id="Vector_7" d="M346.197 26.5695L344.333 5.92207H333.776L328.063 14.3023L314.429 33.7047L312.019 37.0089H321.636L327.316 28.1977L337.464 28.2216L338.002 37.0089H347.306L346.197 26.5695ZM331.309 21.5254L336.966 12.8657L337.536 21.5333H331.309V21.5254Z" fill="var(--fill-0, white)"/>
<path id="Vector_8" d="M185.781 26.0667C186.488 31.9089 181.82 35.1732 176.501 36.0512C171.93 36.8094 167.302 36.3305 162.923 34.9019C161.903 34.4709 160.955 34.1676 160.031 33.5052L162.923 26.8408C166.378 28.8122 170.299 29.6502 174.252 29.307C175.473 29.2033 176.935 28.7164 176.798 27.3756C176.461 24.0474 161.686 27.615 160.625 18.0296C160.28 14.9089 161.533 12.0357 164.168 10.2239C168.844 7.00751 176.027 7.23099 181.346 8.61174C182.599 9.00282 183.764 9.36197 184.873 10.0484L181.965 16.6728C179.128 14.9329 172.846 13.6399 170.138 15.5315C169.817 15.8587 169.616 16.2418 169.656 16.6408C170.042 20.1526 184.632 16.6169 185.773 26.0587L185.781 26.0667Z" fill="var(--fill-0, white)"/>
<path id="Vector_9" d="M310.781 10.639C311.818 9.0108 312.702 7.61408 313.626 5.93005H322.833L308.411 26.9845L301.759 37.0089H291.724L291.386 31.5657L289.265 5.93005H298.344L298.553 12.6343L299.155 25.8272L299.252 28.916L300.698 26.4737L310.773 10.631L310.781 10.639Z" fill="var(--fill-0, white)"/>
<path id="Vector_10" d="M60.7326 27.5911C61.769 26.8648 62.3073 25.9789 62.934 24.9014L70.4221 28.7404C67.4012 36.6737 57.1653 37.8869 50.2476 34.9976C44.985 32.8028 41.8355 27.9582 41.7069 22.3554C41.5784 16.7526 44.7118 11.4371 50.1351 9.13052C57.0769 6.18545 67.369 7.35868 70.4221 15.3399L62.9099 19.1948C61.9136 17.0638 60.1059 15.6352 58.0249 15.4836C55.6789 15.316 53.4533 16.2577 52.3526 18.3887C51.1555 20.7033 51.1796 23.6244 52.4892 25.907C54.1363 28.7643 58.041 29.4906 60.7326 27.5991V27.5911Z" fill="var(--fill-0, white)"/>
<path id="Vector_11" d="M283.48 30.1291L281.472 37.0089H259.835C263.209 26.6972 266.053 16.4812 268.592 5.92207H277.639L270.866 30.177L283.48 30.1291Z" fill="var(--fill-0, white)"/>
<path id="Vector_12" d="M115.978 22.9061L115.961 35.9474H106.288V8.13286H115.487L115.592 11.2854C117.858 8.61972 121.216 7.62207 124.751 7.66995V16.4413C123.257 16.3136 121.843 16.2019 120.405 16.5451C117.376 17.2714 115.978 19.8014 115.978 22.8981V22.9061Z" fill="var(--fill-0, white)"/>
<path id="Vector_13" d="M373.386 23.1535L378.665 37.0169H368.155L363.287 20.5915L374.567 7.70986L376.029 5.92207L386 5.93803L374.88 17.846L372.518 20.5117L373.386 23.1535Z" fill="var(--fill-0, white)"/>
<path id="Vector_14" d="M358.45 37.0009L349.363 37.0089L354.417 19.6977L357.976 5.92207L367.047 5.93005L362.17 22.938L358.45 37.0009Z" fill="var(--fill-0, white)"/>
<path id="Vector_15" d="M308.62 50.8484L308.532 46.4986L306.587 49.8587C306.451 50.13 305.969 50.2338 305.8 49.9465L303.775 46.5146L303.727 50.8484C303.293 50.9521 302.908 50.9441 302.53 50.8244V43.9366C302.811 43.8648 303.446 43.6892 303.615 43.9845L306.178 48.3981L308.765 43.9207C308.982 43.7371 309.528 43.8648 309.801 43.9207V50.8324C309.432 50.9441 309.102 50.9361 308.628 50.8484H308.62Z" fill="var(--fill-0, white)"/>
<path id="Vector_16" d="M222.185 50.6648C221.968 51.016 221.253 51.0239 221.004 50.7127L217.573 46.3469L217.493 50.8244C217.043 50.9441 216.666 50.9361 216.24 50.8244V43.9127C216.553 43.8408 217.011 43.7531 217.3 43.8967L220.835 48.3662L220.916 43.9047C221.326 43.8089 221.711 43.793 222.169 43.8887L222.185 50.6648Z" fill="var(--fill-0, white)"/>
<path id="Vector_17" d="M285.425 50.7925C285.167 50.9122 284.541 51.0319 284.356 50.7925L280.789 46.2033L280.756 50.8324C280.315 50.9282 279.945 50.9282 279.527 50.8164V43.9047C279.824 43.8408 280.307 43.7291 280.564 43.9047L284.123 48.3901L284.195 43.8967C284.605 43.8089 284.983 43.8089 285.425 43.8648V50.7925Z" fill="var(--fill-0, white)"/>
<path id="Vector_18" d="M324.448 43.8648L321.242 43.8488V50.8723C322.351 50.9042 323.379 50.9122 324.448 50.8723C326.441 50.7925 327.839 49.308 327.79 47.2728C327.742 45.3174 326.36 43.8728 324.448 43.8648ZM324.135 49.739C323.588 49.731 323.09 49.7789 322.496 49.715V45.03C323.235 44.9901 323.886 44.9582 324.552 45.038C325.709 45.1737 326.465 46.0915 326.497 47.2887C326.545 48.7333 325.533 49.7549 324.135 49.739Z" fill="var(--fill-0, white)"/>
<path id="Vector_19" d="M211.371 43.7451C209.322 43.761 207.812 45.3014 207.804 47.3526C207.804 49.3878 209.282 51.016 211.451 50.984C213.588 50.9521 214.986 49.3319 214.986 47.3526C214.986 45.3732 213.46 43.7371 211.371 43.7451ZM211.299 49.7948C210.029 49.7549 209.089 48.6934 209.089 47.3526C209.089 46.0117 210.061 44.9822 211.299 44.9343C212.64 44.8864 213.725 45.9399 213.693 47.4324C213.661 48.885 212.584 49.8427 211.299 49.7948Z" fill="var(--fill-0, white)"/>
<path id="Vector_20" d="M371.755 46.8258C371.514 44.9901 370.076 43.793 368.284 43.753C366.38 43.7052 364.869 44.9981 364.644 46.8737C364.363 49.1563 365.978 51 368.212 50.992C370.405 50.984 372.068 49.1883 371.755 46.8258ZM368.22 49.8028C366.894 49.8108 365.89 48.7253 365.898 47.3446C365.898 45.9798 366.91 44.9263 368.22 44.9343C369.505 44.9423 370.534 45.9878 370.502 47.4164C370.477 48.7972 369.465 49.7948 368.22 49.8028Z" fill="var(--fill-0, white)"/>
<path id="Vector_21" d="M274.658 43.7451C272.593 43.7451 271.075 45.2934 271.067 47.3446C271.059 49.3878 272.553 51.0239 274.739 50.984C276.86 50.9441 278.258 49.3319 278.25 47.3526C278.242 45.2934 276.731 43.7451 274.658 43.7451ZM274.578 49.8028C273.284 49.7629 272.352 48.7014 272.36 47.3446C272.36 46.0117 273.317 44.9662 274.586 44.9343C275.912 44.8944 276.996 45.9399 276.956 47.4324C276.916 48.885 275.855 49.8427 274.578 49.8028Z" fill="var(--fill-0, white)"/>
<path id="Vector_22" d="M362.411 48.5897C363.6 47.9991 363.953 46.8019 363.68 45.6286C363.415 44.5192 362.338 43.8488 361.077 43.8488H358.185V50.8324C358.643 50.9441 359.012 50.9282 359.454 50.8404L359.486 48.9169C360.025 48.8131 360.547 48.877 361.101 48.853L362.523 50.7685C362.772 51.1038 363.423 50.8723 363.825 50.8324L362.411 48.5897ZM361.342 47.6878C360.699 47.7915 360.121 47.7596 359.51 47.7357L359.47 45.062C360.113 44.9662 360.796 44.9502 361.463 45.07C362.13 45.1897 362.467 45.7563 362.483 46.315C362.499 46.9695 362.146 47.5521 361.342 47.6878Z" fill="var(--fill-0, white)"/>
<path id="Vector_23" d="M239.692 48.5897C240.6 48.1028 241.002 47.3286 241.026 46.3789C241.058 44.9981 240.078 43.9765 238.656 43.8807C237.595 43.8089 236.567 43.8488 235.434 43.8568V50.8244C235.836 50.9202 236.406 50.992 236.639 50.8084C236.848 50.2338 236.607 49.5714 236.752 48.9329C237.29 48.8052 237.828 48.877 238.367 48.853L239.797 50.7765C240.054 51.1277 240.793 50.8723 241.066 50.8005L239.692 48.5897ZM238.624 47.6798C237.941 47.7995 237.322 47.7676 236.728 47.7197L236.744 45.03C237.451 44.9901 238.101 44.9423 238.752 45.0699C239.411 45.2056 239.724 45.7563 239.741 46.331C239.757 46.9535 239.403 47.5521 238.624 47.6798Z" fill="var(--fill-0, white)"/>
<path id="Vector_24" d="M333.455 47.8235L330.401 47.8873C330.273 48.4939 330.273 49.1005 330.393 49.739L333.937 49.7709C334.154 49.9864 334.146 50.6488 333.921 50.8803H329.052L329.036 43.8807L333.921 43.8488C333.961 44.2638 333.961 44.5671 333.921 44.9662H330.393C330.289 45.5728 330.281 46.1235 330.393 46.738L333.447 46.7779C333.567 47.0254 333.615 47.5042 333.455 47.8235Z" fill="var(--fill-0, white)"/>
<path id="Vector_25" d="M356.24 47.7915C355.22 47.9911 354.256 47.7915 353.203 47.8873C353.083 48.4779 353.075 49.1005 353.203 49.731L356.738 49.7709C356.971 49.9704 356.947 50.6568 356.738 50.8803H351.862V43.8568H356.586C356.811 44.1202 356.706 44.5751 356.658 44.9343L353.195 44.9742C353.091 45.5648 353.083 46.1315 353.195 46.738L356.224 46.7939C356.305 47.0014 356.369 47.4803 356.24 47.7995V47.7915Z" fill="var(--fill-0, white)"/>
<path id="Vector_26" d="M246.867 43.8967C247.301 43.777 247.679 43.8249 248.12 43.9047L248.088 48.4061C248.08 50.0023 246.803 50.9761 245.268 50.992C243.629 51.016 242.336 49.9944 242.32 48.3183L242.287 43.9127C242.737 43.785 243.139 43.793 243.573 43.9127L243.597 48.1347C243.597 49.1404 244.264 49.7789 245.18 49.8028C246.096 49.8268 246.859 49.1803 246.859 48.1347V43.8887L246.867 43.8967Z" fill="var(--fill-0, white)"/>
<path id="Vector_27" d="M260.212 47.8155L257.207 47.8873C257.111 48.5099 257.159 49.0845 257.167 49.731L260.823 49.7549C260.919 50.0103 261.008 50.8244 260.719 50.8404C259.063 50.9601 257.521 50.8563 255.874 50.8803V43.8408H260.67C260.775 44.2399 260.767 44.5512 260.67 44.9502H257.159C257.159 45.5728 257.111 46.0995 257.183 46.7221L260.204 46.7779C260.413 46.9216 260.421 47.592 260.212 47.8075V47.8155Z" fill="var(--fill-0, white)"/>
<path id="Vector_28" d="M293.097 43.9446C292.776 43.8089 292.013 43.7211 291.796 43.9526L288.863 50.8164C289.249 50.8803 289.835 51.0479 290.117 50.7765C290.502 50.4094 290.478 49.7869 290.808 49.292C291.868 49.2441 292.969 49.2282 294.086 49.308C294.391 49.8507 294.391 50.3695 294.72 50.7366C294.986 51.0399 295.596 50.9122 296.022 50.7925L293.097 43.9446ZM291.274 48.1826L292.415 45.2455L293.612 48.1906C292.776 48.2545 292.077 48.2545 291.274 48.1826Z" fill="var(--fill-0, white)"/>
<path id="Vector_29" d="M314.847 43.8807C314.413 43.8488 313.907 43.7531 313.569 43.9286L310.629 50.8084C311.062 50.9042 311.665 51.0479 311.93 50.7366C312.284 50.3136 312.276 49.723 312.597 49.2761H315.811C316.172 49.7789 316.14 50.4014 316.526 50.7685C316.815 51.0479 317.41 50.8883 317.795 50.8164L314.847 43.8807ZM313.031 48.1986L314.236 45.2455L315.361 48.1427C314.574 48.3263 313.826 48.2066 313.031 48.1986Z" fill="var(--fill-0, white)"/>
<path id="Vector_30" d="M341.304 43.9286C340.951 43.8089 340.228 43.7291 340.003 43.9526L337.078 50.8005C337.52 50.9122 338.066 51.0239 338.332 50.7685C338.709 50.4014 338.701 49.7948 339.006 49.3L342.284 49.284C342.614 49.8268 342.59 50.4493 342.991 50.7845C343.281 51.0319 343.819 50.9042 344.245 50.8084L341.304 43.9286ZM339.48 48.1826L340.629 45.2934L341.826 48.1587C341.031 48.2944 340.3 48.2385 339.48 48.1826Z" fill="var(--fill-0, white)"/>
<path id="Vector_31" d="M227.576 50.6408C226.291 51.2235 224.652 51.0798 223.519 50.2577C223.206 50.0263 223.639 49.3239 223.832 49.1723C224.853 49.9545 227.327 50.2737 227.4 49.0366C227.496 47.5282 223.567 48.454 223.487 45.9798C223.455 45.1019 223.913 44.2878 224.853 43.9765C226.018 43.5854 227.311 43.7211 228.348 44.3437C228.315 44.7746 228.179 45.1019 227.946 45.3892C227.126 44.9502 226.202 44.7028 225.303 45.038C224.949 45.1737 224.748 45.5089 224.764 45.8362C224.78 46.1235 225.005 46.4268 225.367 46.5305L227.223 47.0732C228.01 47.3047 228.589 47.8634 228.661 48.6056C228.733 49.3479 228.46 50.2418 227.584 50.6408H227.576Z" fill="var(--fill-0, white)"/>
<path id="Vector_32" d="M345.796 47.592C345.876 48.6535 346.551 49.3958 347.282 49.6512C348.286 50.0023 349.162 49.723 349.877 49.0047C350.158 49.1643 350.608 49.5315 350.624 49.9066C349.299 51.3432 346.856 51.3671 345.482 49.9066C344.205 48.5657 344.156 46.3948 345.346 44.9662C346.671 43.3779 349.242 43.3141 350.632 44.8305C350.632 45.1817 350.142 45.5249 349.869 45.6925C349.114 44.9582 348.142 44.7268 347.21 45.1019C346.278 45.477 345.699 46.4108 345.796 47.584V47.592Z" fill="var(--fill-0, white)"/>
<path id="Vector_33" d="M202.364 47.2728C202.324 48.3981 202.919 49.2601 203.722 49.6033C204.71 50.0263 205.698 49.7789 206.43 49.0207C206.759 49.1883 207.008 49.4277 207.249 49.8347C206.389 50.9282 204.895 51.2235 203.497 50.8244C202.236 50.4653 201.255 49.3 201.103 47.8474C200.942 46.2671 201.633 44.7587 203.031 44.1202C204.429 43.4817 206.189 43.6254 207.177 44.8704C207.273 45.1737 206.695 45.6047 206.43 45.7244C205.723 44.9981 204.823 44.7667 203.875 45.0859C203.047 45.3653 202.396 46.1714 202.356 47.2808L202.364 47.2728Z" fill="var(--fill-0, white)"/>
<path id="Vector_34" d="M265.628 47.2728C265.595 48.3582 266.15 49.2042 266.905 49.5634C267.885 50.0183 268.906 49.8427 269.669 49.0366C269.958 49.1484 270.432 49.5155 270.464 49.9225C269.106 51.3751 266.608 51.3831 265.25 49.8507C264.013 48.454 264.013 46.2831 265.258 44.9023C266.616 43.3859 269.115 43.362 270.472 44.8545C270.472 45.2136 269.982 45.5408 269.709 45.7164C268.994 45.03 268.102 44.7587 267.17 45.0859C266.335 45.3732 265.66 46.1634 265.628 47.2887V47.2728Z" fill="var(--fill-0, white)"/>
<path id="Vector_35" d="M255.151 43.9207L252.716 48.3582C252.323 49.0765 252.813 50.0263 252.572 50.8164C252.242 50.9441 251.76 50.9521 251.399 50.8164C251.133 50.0423 251.64 49.0845 251.254 48.3901L248.803 43.9366C249.101 43.8249 249.816 43.7371 250.129 43.9606L252.017 47.1531L253.921 43.9765C254.09 43.6972 254.741 43.8329 255.151 43.9286V43.9207Z" fill="var(--fill-0, white)"/>
<path id="Vector_36" d="M232.373 50.7925C231.971 50.9761 231.569 50.9361 231.103 50.8164L231.071 45.03L229.015 44.9822C228.886 44.6789 228.798 44.1361 229.039 43.8488H234.47C234.574 44.1681 234.639 44.6948 234.454 44.9023C233.811 45.1418 233.128 44.8864 232.397 45.0221L232.373 50.7765V50.7925Z" fill="var(--fill-0, white)"/>
<path id="Vector_37" d="M301.493 49.7789C301.702 50.0343 301.678 50.6728 301.469 50.8723H296.874L296.866 43.9047C297.299 43.8089 297.661 43.8169 298.111 43.8648V49.723L301.493 49.7709V49.7789Z" fill="var(--fill-0, white)"/>
<g id="Vector_38">
</g>
<g id="Vector_39">
</g>
<g id="Vector_40">
</g>
<g id="Vector_41">
</g>
<g id="Vector_42">
</g>
<g id="Vector_43">
</g>
<g id="Vector_44">
</g>
<g id="Vector_45">
</g>
<g id="Vector_46">
</g>
<g id="Vector_47">
</g>
<g id="Vector_48">
</g>
<g id="Vector_49">
</g>
<g id="Vector_50">
</g>
<g id="Vector_51">
</g>
</g>
<defs>
<clipPath id="clip0_83_1202">
<rect width="386" height="51" fill="white"/>
</clipPath>
</defs>
</svg>
