<svg preserveAspectRatio="xMidYMid meet"  overflow="visible" style="display: block;" viewBox="0 0 223 42" fill="none" xmlns="http://www.w3.org/2000/svg">
<g id="Capa_1" clip-path="url(#clip0_83_1255)">
<path id="Vector" d="M83.0653 41.1958L75.5155 41.2305L68.4863 10.785L62.1746 41.2189L54.8504 41.2247L63.3548 2.00771H72.3683L78.8999 30.839L85.0786 2.0135L92.1251 2.02507L83.0653 41.1958Z" fill="var(--fill-0, white)"/>
<path id="Vector_2" d="M136.273 41.3115L140.022 21.5236C140.224 19.9846 139.501 18.6827 138.112 18.0405C135.804 16.999 132.553 17.4619 130.019 18.0116L125.049 41.323L118.089 41.2999L123.881 14.4243C124.615 13.9151 125.327 13.5622 126.177 13.296C131.239 11.7049 139.304 10.9759 143.84 14.3144C144.528 13.8978 145.205 13.5043 146.009 13.2208C150.794 11.5313 157.742 11.1032 161.855 14.4995C163.816 16.1196 164.892 18.4397 164.702 21.0087L160.976 41.3173H154.103L157.788 21.8592C158.118 20.2623 157.36 18.839 155.908 18.1446C153.594 17.0685 150.412 17.6991 148.075 18.4397L143.198 41.323H136.278L136.273 41.3115Z" fill="var(--fill-0, white)"/>
<path id="Vector_3" d="M218.748 41.2305C218.829 41.3462 218.748 41.4619 218.644 41.4735H211.904L202.537 28.4609L199.517 41.4677L192.986 41.4561L202.017 1.77049L208.595 1.78206L203.689 23.4388L215.855 12.2719L222.994 12.3067L208.23 26.4359L218.748 41.2305Z" fill="var(--fill-0, white)"/>
<path id="Vector_4" d="M192.008 18.8274C191.175 13.5391 186.015 11.6528 181.201 11.9942C177.001 12.1099 173.067 13.5333 169.85 16.2989L171.303 21.0203C173.466 19.1398 175.885 17.8843 178.615 17.3173C181.421 16.7792 185.494 16.8023 185.951 20.4532C186.107 21.6798 185.951 22.9065 185.552 24.0868C180.2 23.5892 172.795 23.7338 168.774 27.7608C165.581 30.9662 165.506 36.6422 169.434 39.4773C170.522 40.2584 171.708 40.7734 173.003 41.1784C175.109 41.7801 177.209 42.0058 179.419 42C182.283 41.9942 185.054 41.8091 187.953 41.2883L191.916 23.5371C192.274 21.9402 192.257 20.3954 192.008 18.8274ZM183.076 36.2314C180.571 36.8679 178.083 36.81 175.52 36.4108C174.311 36.1446 173.299 35.5776 172.639 34.6056C171.713 33.269 172.026 31.6027 173.31 30.6133C174.189 29.919 175.231 29.595 176.359 29.3462C179.061 28.8255 181.751 28.8312 184.545 29.1321L183.076 36.2314Z" fill="var(--fill-0, white)"/>
<path id="Vector_5" d="M29.1 5.72806C27.4107 5.0569 25.6694 5.28255 24.1883 6.22565C21.556 7.89778 18.5245 12.0231 16.8641 14.7194C13.3409 20.4359 10.8879 26.6326 8.81101 33.0087C8.71266 33.3095 8.51017 33.6451 8.30768 33.7608C8.03578 33.9171 7.58452 33.7435 7.3184 33.7782C6.16134 33.9055 2.96786 33.5757 1.74716 33.5757H0.225627C0.0462824 33.5757 -0.0520677 33.1128 0.0231412 32.8987C1.67774 28.5188 3.53482 24.3124 5.73323 20.1697C9.05399 13.9036 15.1806 3.99807 21.5618 0.757956C23.0081 0.0231436 24.4602 -0.15622 26.0512 0.133076C28.4 0.56702 30.5464 1.42912 32.577 2.69624C38.2061 6.20829 42.869 12.324 45.941 18.2083C46.0741 18.0579 46.1782 17.7743 46.1782 17.514C46.1782 12.6654 45.8311 7.05882 44.7435 2.33751C44.5931 1.6837 44.8881 1.35391 45.4435 1.04147C45.7675 0.862102 46.0683 0.619094 46.5311 0.740598C47.7113 6.00579 48.313 11.2768 48.2552 16.6461C48.232 18.9026 48.1337 21.0608 47.6708 23.2363C47.4626 24.2199 46.6295 25.6085 45.7675 25.4291C45.5766 25.3886 45.3047 25.1572 45.1889 24.9142C42.331 18.9431 38.3334 12.839 33.3812 8.40116C32.1084 7.26133 30.7373 6.3703 29.1116 5.72806H29.1Z" fill="var(--fill-0, white)"/>
<path id="Vector_6" d="M117.499 17.3462C116.84 15.8708 115.741 14.7078 114.329 13.8746C111.379 12.1331 107.919 11.6181 104.546 12.2141C102.226 12.6249 100.103 13.3597 98.1475 14.6731C95.5615 16.4031 93.7102 18.8737 92.6457 21.8187C91.587 24.7348 91.1415 27.8129 91.3267 30.9257C91.6449 36.3529 95.4632 40.4147 100.78 41.3404C104.396 41.9653 108.092 41.5661 111.494 40.2469C112.645 39.8014 113.617 39.2054 114.491 38.3144L111.737 34.4899C109.678 35.9884 106.386 36.5034 103.869 36.2893C100.375 35.9942 97.112 32.945 97.569 29.1437L108.133 29.0627C110.019 29.0453 111.801 28.6519 113.484 27.9286C115.995 26.8467 117.621 24.677 117.997 21.9807C118.217 20.3838 118.165 18.8274 117.499 17.3462ZM111.859 22.4436C111.02 23.5718 109.718 24.0752 108.33 24.162C104.98 24.3587 101.705 24.3124 98.3385 24.2199C99.1657 20.7136 101.416 18.1157 104.974 17.3925C107.04 17.0453 110.401 16.9065 111.87 18.6885C112.773 19.7705 112.738 21.269 111.859 22.4436Z" fill="var(--fill-0, white)"/>
<g id="Vector_7">
</g>
<g id="Vector_8">
</g>
</g>
<defs>
<clipPath id="clip0_83_1255">
<rect width="223" height="42" fill="white"/>
</clipPath>
</defs>
</svg>
