<svg version="1.1" xmlns="http://www.w3.org/2000/svg" xmlns:xlink="http://www.w3.org/1999/xlink" x="0px" y="0px"
 viewBox="0 0 325.2 125.3" enable-background="new 0 0 325.2 125.3" xml:space="preserve">
	<g id="Layer_2">
		<path fill="#003366" d="M0,0h110.5l16,42.8L143.3,0H177l16.2,42.8L209.8,0h84.8c16.8,0,30.5,13.7,30.5,30.5S311.5,61,294.7,61h-56.6l11.3-28.6h39.8v-6.2h-43.5L232,60.9L86.6,61c-5.8-14.6-10.2-26-10.2-26.4h-8.2V61H28V34.7H0V0z"/>
		<path fill="#CCCCCC" d="M112.2,125.3c0,0-13.4-33.6-23.8-59.8l141.8,0.1l-23.6,59.8h-27.4l-19.8-48l-17.8,48H112.2z M68.2,65.6H28v59.8h40.2V65.6zM289.2,98.2h-65.8l-10.7,27.1h81.6c16.5,0,29.9-13.4,29.9-29.9s-13.4-29.9-29.9-29.9l-58,0l-10.1,25.6h63V98.2z"/>
	</g>
</svg>