<svg viewBox="0 0 144 20" fill="white" xmlns="http://www.w3.org/2000/svg">
  <path d="M22.0725 0C19.3197 0 17.8995 1.37539 17.3614 3.80442L14.6649 15.6215C14.496 16.3091 14.0956 16.7066 13.3886 16.7066C12.6817 16.7066 12.2812 16.3091 12.1123 15.6215L9.41583 3.80442C8.87778 1.37539 7.31995 0 4.59843 0C1.50153 0 0 1.74763 0 4.32177V19.653H3.32213V4.49211C3.32213 3.74763 3.80387 3.26183 4.68602 3.26183C5.44929 3.26183 5.88098 3.65931 6.01862 4.29022L8.74014 16.1073C9.30947 18.5994 10.6984 20 13.3636 20C16.0288 20 17.3051 18.6562 17.9057 16.1073L20.6585 4.29022C20.8024 3.65931 21.1966 3.26183 21.9911 3.26183C22.8733 3.26183 23.355 3.74763 23.355 4.49211V19.653H26.6771V4.32177C26.6771 1.74763 25.1756 0 22.0787 0H22.0725Z" />
  <path d="M34.0164 13.8485C34.0164 12.2775 35.0112 11.5015 36.9382 11.5015H46.4416V8.44158H37.0195C35.0925 8.44158 34.0978 7.72865 34.0978 6.15136C34.0978 4.6624 34.9799 3.72234 36.9945 3.72234H46.5855V0.340637H36.9945C32.4836 0.340637 30.5817 2.51729 30.5817 5.60247C30.5817 7.72234 31.4889 9.20499 33.2782 9.94947C31.5202 10.6939 30.5254 12.1829 30.5254 14.3848C30.5254 17.388 32.371 19.6466 36.9069 19.6466H46.6105V16.2712H36.9069C34.9486 16.2712 34.0164 15.3564 34.0164 13.8359V13.8485Z"/>
  <path d="M64.0015 0.340637H49.4492V3.72234H55.0362V19.6529H58.4146V3.72234H64.0015V0.340637Z" />
  <path d="M74.1629 0C72.1483 0 70.8408 0.687697 70.1338 2.49211L63.4082 19.6593H67.0995L68.4821 16.1199H79.5621L80.8885 19.6593H84.6048L78.1357 2.49211C77.4537 0.687697 76.1524 0 74.1629 0ZM69.8022 12.7382L73.1744 4.11356C73.3746 3.653 73.6874 3.45741 74.1379 3.45741C74.5883 3.45741 74.9011 3.65931 75.0763 4.11356L78.3046 12.7382H69.8085H69.8022Z" />
  <path d="M89.4878 12.9589V0.340637H86.1406V12.9905C86.1406 16.8517 88.1239 19.6529 93.2041 19.6529H100.837V16.2775H93.4043C90.395 16.2775 89.4878 14.8201 89.4878 12.9589Z" />
  <path d="M113.771 8.29647H109.285C107.045 8.29647 106.451 7.17975 106.451 6.00625C106.451 4.6624 107.214 3.71603 108.947 3.71603H118.763V0.340637H109.06C104.805 0.340637 103.104 2.68764 103.104 5.89269C103.104 8.58039 104.292 11.47 109.404 11.47H113.858C116.211 11.47 116.868 12.6119 116.868 13.8738C116.868 15.2744 116.048 16.2775 114.227 16.2775H103.448V19.6529H114.115C118.482 19.6529 120.215 17.2492 120.215 13.9873C120.215 11.2113 118.995 8.29647 113.777 8.29647H113.771Z"/>
  <path d="M136.864 2.49211C136.182 0.687697 134.881 0 132.891 0C130.902 0 129.569 0.687697 128.862 2.49211L122.137 19.6593H125.828L127.211 16.1199H138.291L139.617 19.6593H143.333L136.864 2.49211ZM128.531 12.7445L131.903 4.11987C132.103 3.65931 132.416 3.46372 132.866 3.46372C133.317 3.46372 133.63 3.66562 133.805 4.11987L137.033 12.7445H128.537H128.531Z" />
</svg>
