<svg preserveAspectRatio="xMidYMid meet"  overflow="visible" style="display: block;" viewBox="0 0 134.78 48.62" fill="none" xmlns="http://www.w3.org/2000/svg">
<g id="Capa_1" clip-path="url(#clip0_83_1265)">
<path id="Vector" d="M5.2 0.28C22.01 0.27 38.83 0.28 55.68 0.31C55.67 1.76 55.68 3.22 55.7 4.67C51.73 4.65 47.74 4.66 43.74 4.71L43.64 4.81L43.62 4.91L42.89 5.07C42.89 5.07 42.82 5.07 42.8 5.07C42.66 5.22 42.46 5.32 42.23 5.37L41.86 5.65L40.91 6.51C40.68 6.78 40.4 7.01 40.25 7.34L39.47 8.48C39.18 8.75 39.01 9.16 38.83 9.51C38.59 9.96 38.33 10.41 38.06 10.84C38.03 10.86 38.01 10.9 37.99 10.92C37.9 11.17 37.79 11.41 37.6 11.59C37.56 11.68 37.47 11.78 37.42 11.87C37.18 12.4 36.89 12.9 36.56 13.39C36.44 13.48 36.31 13.7 36.28 13.85C36.11 14.19 35.92 14.51 35.71 14.81C35.63 14.96 35.46 15.08 35.43 15.27L35.22 15.66C35.22 15.66 35.16 15.72 35.15 15.74C35.04 16.05 34.87 16.34 34.66 16.6C34.63 16.62 34.6 16.66 34.58 16.69C34.36 17.23 34.04 17.72 33.72 18.21C33.59 18.34 33.51 18.5 33.44 18.67L33.23 19.06C33.23 19.06 33.19 19.13 33.16 19.14L32.87 19.63C32.71 19.71 32.69 19.96 32.59 20.09C32.42 20.5 32.19 20.89 31.92 21.23C31.88 21.32 31.79 21.4 31.73 21.49C31.6 21.91 31.33 22.29 31.07 22.64C31.03 22.73 30.93 22.81 30.88 22.9C30.74 23.28 30.55 23.63 30.3 23.96C30.17 24.01 30.09 24.21 30.03 24.32C29.88 24.69 29.69 25.04 29.46 25.38C29.32 25.43 29.26 25.64 29.2 25.75C28.64 26.82 28.03 27.86 27.39 28.87C27.28 28.9 27.27 29.08 27.21 29.15C26.75 30.2 25.71 30.08 25.16 29.15C25.16 29.13 25.16 29.08 25.16 29.06C24.83 28.73 24.57 28.25 24.4 27.81C24.35 27.73 24.3 27.6 24.22 27.54L23.75 26.69C23.63 26.57 23.63 26.32 23.47 26.22C22.77 25.05 22.11 23.83 21.48 22.62L21.3 22.35C20.34 20.81 19.45 19.15 18.65 17.51C18.6 17.42 18.51 17.34 18.47 17.24C18.29 17.08 18.17 16.88 18.08 16.66L17.9 16.48L17.61 16.09C17.32 15.82 17.04 15.54 16.77 15.25L16.38 14.96C16.21 14.81 16.01 14.71 15.83 14.59C15.64 14.58 15.51 14.52 15.43 14.4C15.4 14.4 15.36 14.39 15.34 14.4C15.01 14.35 14.69 14.25 14.4 14.12H14.31L13.07 14.01L0.11 13.99L0.09 5.46C0.07 5.23 0.12 5.04 0.25 4.88C0.25 4.85 0.26 4.82 0.25 4.79C0.4 3.88 0.87 3.03 1.47 2.34C1.54 2.29 1.59 2.22 1.65 2.16C1.7 2.01 1.8 1.92 1.94 1.87C2.07 1.63 2.43 1.52 2.59 1.31C2.94 0.96 3.45 0.72 3.92 0.55C4.01 0.58 4.11 0.47 4.19 0.46C4.46 0.29 4.94 0.17 5.23 0.26L5.2 0.28Z" fill="var(--fill-0, white)"/>
<path id="Vector_2" d="M7.85 18.04C8.22 18.2 8.54 18.46 8.87 18.7C8.97 18.76 9.04 18.86 9.07 18.99L9.34 19.45C9.67 19.79 9.96 20.17 10.2 20.6C10.3 20.7 10.29 20.93 10.47 20.97C11.23 22.16 11.95 23.35 12.65 24.56C12.63 24.62 12.72 24.69 12.74 24.74C13.08 25.21 13.36 25.73 13.6 26.26C13.68 26.37 13.71 26.58 13.86 26.63L14.06 27.02C14.06 27.15 14.14 27.22 14.23 27.29C14.71 28.06 15.16 28.85 15.57 29.66C15.62 29.74 15.7 29.85 15.74 29.94C16.38 30.96 16.98 32 17.55 33.06C17.64 33.2 17.66 33.34 17.81 33.43C18.15 33.94 18.44 34.48 18.68 35.04C18.7 35.07 18.73 35.11 18.76 35.13C18.96 35.4 19.12 35.68 19.24 35.99C19.26 36.02 19.29 36.04 19.31 36.07L19.81 37.02C19.87 37.11 19.94 37.21 19.99 37.3C20.31 37.75 20.59 38.22 20.84 38.73C20.84 38.8 20.91 38.85 20.93 38.91C21.25 39.37 21.56 39.9 21.79 40.43C21.81 40.46 21.84 40.5 21.87 40.52C22.07 40.78 22.23 41.08 22.36 41.38C22.39 41.41 22.41 41.43 22.43 41.46C22.87 42.18 23.28 42.9 23.67 43.64C23.67 43.71 23.74 43.76 23.76 43.82C24.07 44.3 24.39 44.81 24.62 45.34C24.64 45.37 24.67 45.4 24.69 45.42C24.89 45.72 25.05 46.04 25.19 46.37C25.24 46.44 25.34 46.57 25.37 46.65C25.55 46.84 25.69 47.07 25.76 47.32C25.94 47.63 26.06 47.99 26.32 48.26C26.41 48.38 26.5 48.5 26.34 48.59H5.97C5.65 48.59 5.36 48.54 5.1 48.44C3.26 48.07 1.73 46.96 0.77 45.34C0.36 44.84 0.15 44.04 0.06 43.39L0.04 17.84H6.79C7.17 17.85 7.52 17.93 7.84 18.07L7.85 18.04Z" fill="var(--fill-0, white)"/>
<path id="Vector_3" d="M55.72 23.41C55.69 23.62 55.62 23.67 55.58 23.46H48.97L55.72 23.49C55.64 29.81 55.63 36.35 55.72 42.67C55.83 43.45 55.67 44.39 55.24 45.03C55.2 45.12 55.16 45.2 55.16 45.3C54.6 46.6 53.51 47.71 52.14 48.13C52.12 48.13 52.07 48.13 52.05 48.13C51.78 48.31 51.43 48.4 51.01 48.4L50.82 48.42C50.59 48.55 50.32 48.6 50.02 48.57H32.57C32.82 47.85 33.22 47.18 33.64 46.54C33.67 46.49 33.73 46.43 33.73 46.37C34.05 45.66 34.43 44.99 34.87 44.37L35.05 44.1C35.18 43.72 35.38 43.36 35.63 43.04L35.72 42.87C35.74 42.72 35.81 42.61 35.91 42.56C35.97 42.39 36.09 42.25 36.19 42.11C36.45 41.51 36.77 40.92 37.14 40.39C37.19 40.29 37.27 40.22 37.32 40.12C37.44 39.79 37.61 39.47 37.8 39.17C37.83 39.14 37.87 39.12 37.88 39.09C38.01 38.71 38.21 38.36 38.45 38.03C38.51 37.86 38.64 37.73 38.73 37.58C38.85 37.2 39.05 36.84 39.3 36.52L39.39 36.35C39.42 36.16 39.53 35.99 39.68 35.86C39.71 35.76 39.81 35.68 39.86 35.59C40.12 34.99 40.44 34.4 40.81 33.87C40.86 33.77 40.93 33.7 40.99 33.6C41.28 32.94 41.64 32.3 42.04 31.7C42.07 31.68 42.11 31.64 42.13 31.61C42.38 31.01 42.72 30.43 43.08 29.89C43.12 29.79 43.21 29.72 43.26 29.62C43.87 28.36 44.58 27.09 45.35 25.93C45.4 25.84 45.47 25.74 45.53 25.66C45.62 25.39 45.82 25.19 46.01 24.99C46.08 24.96 46.13 24.86 46.19 24.81C46.38 24.51 46.64 24.22 46.96 24.05L47.05 23.96C47.3 23.74 47.59 23.58 47.9 23.48C48.03 23.53 48.16 23.38 48.27 23.39C48.42 23.27 48.61 23.22 48.84 23.24C51.15 23.22 53.46 23.23 55.76 23.28L55.73 23.38L55.72 23.41Z" fill="var(--fill-0, white)"/>
<path id="Vector_4" d="M134.55 32.38V32.29C134.62 31.57 134.58 30.84 134.56 30.12C134.56 30.09 134.54 30.05 134.55 30.02C134.34 29.24 134.05 28.5 133.71 27.76C133.57 27.71 133.51 27.49 133.44 27.39C133.29 27.34 133.24 27.21 133.16 27.09C133.11 27 132.99 26.94 132.97 26.82C132.84 26.76 132.74 26.66 132.68 26.53C132.61 26.52 132.49 26.43 132.5 26.35C132.2 26.13 131.89 25.95 131.64 25.68C131.64 25.68 131.57 25.63 131.56 25.61C131.25 25.52 130.97 25.3 130.71 25.11C130.58 25.02 130.33 25 130.24 24.84C130.1 24.81 129.93 24.79 129.85 24.65C129.77 24.67 129.66 24.59 129.58 24.56C129.33 24.46 129.05 24.44 128.82 24.29C128.8 24.29 128.76 24.29 128.73 24.29L126.56 23.73C126.56 23.73 126.49 23.73 126.46 23.72L124.95 23.52C124.74 23.49 124.52 23.58 124.39 23.45C124.36 23.44 124.32 23.44 124.29 23.44C123.91 23.43 123.53 23.43 123.11 23.38C121.59 23.19 119.94 23.49 119.19 23.44C119.1 23.43 119 23.47 118.91 23.45C118.32 23.58 117.72 23.64 117.11 23.72C117.09 23.73 117.05 23.74 117.02 23.73C116.67 23.9 116.26 23.9 115.89 24.01C115.86 24.01 115.82 24.02 115.79 24.01C115.03 24.28 114.25 24.48 113.52 24.85C113.32 24.95 113.16 25.02 112.97 25.13L112.01 25.71C111.88 25.79 111.72 25.87 111.62 26C111.52 26.13 111.37 26.17 111.25 26.27C111.05 26.44 110.92 26.68 110.71 26.83C110.04 27.75 109.37 28.76 109.37 29.94C109.4 29.93 109.46 29.97 109.46 30.05V40.5C109.46 40.58 109.4 40.62 109.37 40.61C109.37 42.26 109.93 43.1 110.71 44.38C110.79 44.52 110.89 44.62 110.98 44.74L112.19 45.9L112.88 46.45C113.16 46.67 113.49 46.84 113.81 47.01C113.96 47.04 114.1 47.1 114.21 47.2C114.29 47.22 114.39 47.27 114.47 47.3C114.69 47.38 114.96 47.4 115.13 47.57C115.16 47.57 115.2 47.56 115.22 47.58C115.5 47.7 115.83 47.67 116.07 47.85C116.1 47.85 116.15 47.85 116.17 47.85L117.3 48.13C117.3 48.13 117.37 48.13 117.4 48.13L119.38 48.41H119.47C119.89 48.45 120.31 48.41 120.76 48.47C121.4 48.57 122.08 48.57 122.72 48.47C123.14 48.4 123.53 48.45 123.91 48.41C123.94 48.41 123.99 48.42 124.01 48.41C124.15 48.27 124.36 48.37 124.57 48.34L126.09 48.13C126.09 48.13 126.15 48.12 126.18 48.13C126.57 47.97 127 47.96 127.41 47.85C127.44 47.85 127.47 47.85 127.5 47.85C127.75 47.68 128.08 47.7 128.35 47.58C128.38 47.57 128.42 47.57 128.45 47.57L129.77 47.01C129.77 47.01 129.84 47.01 129.86 47C129.94 46.83 130.19 46.83 130.34 46.73C130.36 46.72 130.41 46.71 130.43 46.72C130.7 46.48 131.03 46.28 131.37 46.16C131.57 45.98 131.79 45.74 132.03 45.61C132.27 45.29 132.61 45.04 132.89 44.76L132.97 44.67C133.93 43.45 134.38 42.04 134.56 40.51C134.57 40.48 134.57 40.45 134.57 40.42V32.98C134.58 32.76 134.37 32.55 134.56 32.39L134.55 32.38ZM127.27 42.45C126.12 44.45 124.03 45 121.82 45.05C118.96 45.1 116.64 43.52 116 40.67V30.91C116.58 27.24 121.19 26.23 124.17 27.19C125.8 27.71 127.82 28.94 127.82 30.84V40.85C127.82 41.46 127.56 41.96 127.27 42.45Z" fill="var(--fill-0, white)"/>
<path id="Vector_5" d="M109.36 40.6C109.36 42.25 109.92 43.09 110.7 44.37C109.87 43.33 109.21 41.96 109.36 40.6Z" fill="var(--fill-0, white)"/>
<path id="Vector_6" d="M110.7 26.82C110.03 27.74 109.36 28.75 109.36 29.93C109.27 28.82 109.94 27.62 110.7 26.82Z" fill="var(--fill-0, white)"/>
<path id="Vector_7" d="M109.36 29.93C109.36 29.93 109.45 29.96 109.45 30.04V40.49C109.45 40.57 109.39 40.61 109.36 40.6C109.44 37.09 109.44 33.43 109.36 29.93Z" fill="var(--fill-0, white)"/>
<path id="Vector_8" d="M111.61 25.99C111.51 26.12 111.36 26.16 111.24 26.26C111.22 26.13 111.35 26.04 111.61 25.99Z" fill="var(--fill-0, white)"/>
<path id="Vector_9" d="M112.18 45.89L112.87 46.44C112.15 46.03 111.49 45.38 110.97 44.73L112.18 45.89Z" fill="var(--fill-0, white)"/>
<path id="Vector_10" d="M112 25.7C112.25 25.41 112.6 25.23 112.96 25.12L112 25.7Z" fill="var(--fill-0, white)"/>
<path id="Vector_11" d="M115.78 24C115.02 24.27 114.24 24.47 113.51 24.84C114.16 24.41 115 24.14 115.78 24Z" fill="var(--fill-0, white)"/>
<path id="Vector_12" d="M113.8 47C113.95 47.03 114.09 47.09 114.2 47.19H114.17C114 47.17 113.88 47.11 113.8 47Z" fill="var(--fill-0, white)"/>
<path id="Vector_13" d="M114.46 47.29C114.68 47.37 114.95 47.39 115.12 47.56C114.85 47.51 114.63 47.42 114.46 47.29Z" fill="var(--fill-0, white)"/>
<path id="Vector_14" d="M115.21 47.57C115.49 47.69 115.82 47.66 116.06 47.84C115.71 47.81 115.43 47.72 115.21 47.57Z" fill="var(--fill-0, white)"/>
<path id="Vector_15" d="M117.01 23.72C116.66 23.89 116.25 23.89 115.88 24C116.2 23.84 116.58 23.75 117.01 23.72Z" fill="var(--fill-0, white)"/>
<path id="Vector_16" d="M116.16 47.85L117.29 48.13C116.86 48.12 116.48 48.03 116.16 47.85Z" fill="var(--fill-0, white)"/>
<path id="Vector_17" d="M118.9 23.44C118.31 23.57 117.71 23.63 117.1 23.71C117.68 23.54 118.28 23.45 118.9 23.44Z" fill="var(--fill-0, white)"/>
<path id="Vector_18" d="M117.39 48.13L119.37 48.41C118.68 48.41 118.02 48.32 117.39 48.13Z" fill="var(--fill-0, white)"/>
<path id="Vector_19" d="M122.71 48.47C123.13 48.4 123.52 48.45 123.9 48.41L123.82 48.49C122.46 48.58 121.09 48.59 119.71 48.52C119.71 48.52 119.63 48.49 119.46 48.41C119.88 48.45 120.3 48.41 120.75 48.47C121.39 48.57 122.07 48.57 122.71 48.47Z" fill="var(--fill-0, white)"/>
<path id="Vector_20" d="M119.18 23.43C119.34 23.36 119.42 23.33 119.42 23.33C120.83 23.19 122.66 23.23 124.08 23.33C124.16 23.33 124.23 23.36 124.28 23.43C123.9 23.42 123.52 23.42 123.1 23.37C121.58 23.18 119.93 23.48 119.18 23.43Z" fill="var(--fill-0, white)"/>
<path id="Vector_21" d="M124.56 48.34L126.08 48.13C125.41 48.32 124.72 48.41 124 48.41C124.14 48.27 124.35 48.37 124.56 48.34Z" fill="var(--fill-0, white)"/>
<path id="Vector_22" d="M124.38 23.44C125.09 23.43 125.78 23.52 126.45 23.71L124.94 23.51C124.73 23.48 124.51 23.57 124.38 23.44Z" fill="var(--fill-0, white)"/>
<path id="Vector_23" d="M126.17 48.13C126.56 47.97 126.99 47.96 127.4 47.85C127.04 48.01 126.63 48.11 126.17 48.13Z" fill="var(--fill-0, white)"/>
<path id="Vector_24" d="M127.49 47.84C127.74 47.67 128.07 47.69 128.34 47.57C128.1 47.72 127.81 47.82 127.49 47.84Z" fill="var(--fill-0, white)"/>
<path id="Vector_25" d="M128.72 24.28L126.55 23.72C127.28 23.83 128.08 23.98 128.72 24.28Z" fill="var(--fill-0, white)"/>
<path id="Vector_26" d="M129.57 24.56C129.32 24.46 129.04 24.44 128.81 24.29C129.13 24.31 129.38 24.41 129.57 24.56Z" fill="var(--fill-0, white)"/>
<path id="Vector_27" d="M128.44 47.56L129.76 47C129.37 47.27 128.93 47.46 128.44 47.56Z" fill="var(--fill-0, white)"/>
<path id="Vector_28" d="M130.33 46.72C130.22 46.84 130.06 46.93 129.85 46.99C129.93 46.82 130.18 46.82 130.33 46.72Z" fill="var(--fill-0, white)"/>
<path id="Vector_29" d="M130.23 24.84C130.09 24.81 129.92 24.79 129.84 24.65L130.23 24.84Z" fill="var(--fill-0, white)"/>
<path id="Vector_30" d="M130.42 46.71C130.69 46.47 131.02 46.27 131.36 46.15C131.06 46.37 130.75 46.55 130.42 46.71Z" fill="var(--fill-0, white)"/>
<path id="Vector_31" d="M130.7 25.11C131 25.24 131.29 25.4 131.55 25.61C131.24 25.52 130.96 25.3 130.7 25.11Z" fill="var(--fill-0, white)"/>
<path id="Vector_32" d="M132.5 26.35C132.2 26.13 131.89 25.95 131.64 25.68C131.97 25.86 132.25 26.08 132.5 26.35Z" fill="var(--fill-0, white)"/>
<path id="Vector_33" d="M132.88 44.75C132.64 45.07 132.35 45.36 132.02 45.6C132.26 45.28 132.6 45.03 132.88 44.75Z" fill="var(--fill-0, white)"/>
<path id="Vector_34" d="M132.68 26.53C132.81 26.59 132.91 26.69 132.97 26.82C132.84 26.76 132.74 26.66 132.68 26.53Z" fill="var(--fill-0, white)"/>
<path id="Vector_35" d="M133.16 27.09C133.29 27.15 133.37 27.27 133.44 27.39C133.29 27.34 133.24 27.21 133.16 27.09Z" fill="var(--fill-0, white)"/>
<path id="Vector_36" d="M132.96 44.66C133.92 43.44 134.37 42.03 134.55 40.5C134.49 42.02 133.97 43.51 132.96 44.66Z" fill="var(--fill-0, white)"/>
<path id="Vector_37" d="M134.55 30.02C134.34 29.24 134.05 28.5 133.71 27.76C134.14 28.44 134.43 29.23 134.55 30.02Z" fill="var(--fill-0, white)"/>
<path id="Vector_38" d="M134.56 32.29C134.62 31.57 134.58 30.84 134.56 30.12C134.74 30.79 134.75 31.63 134.56 32.29Z" fill="var(--fill-0, white)"/>
<path id="Vector_39" d="M134.55 32.38C134.51 32.6 134.55 32.83 134.67 33.06V40.16C134.67 40.16 134.63 40.24 134.56 40.41V32.97C134.57 32.75 134.36 32.54 134.55 32.38Z" fill="var(--fill-0, white)"/>
<path id="Vector_40" d="M79.03 27.19C79.03 27.19 79.03 27.25 79.03 27.28V41.82C79.03 41.88 79.03 41.95 79.04 42.01C79.18 42.61 79.44 43.14 79.81 43.62C80.18 43.94 80.53 44.33 81.02 44.46C81.21 44.49 81.34 44.56 81.41 44.66C81.44 44.66 81.48 44.67 81.5 44.66C81.8 44.73 82.08 44.82 82.35 44.94H82.44C83.52 45.02 84.58 45.08 85.65 44.94C85.68 44.94 85.71 44.94 85.74 44.94C86.26 44.63 86.44 44.89 86.49 45.46C86.53 46.06 86.56 46.84 86.39 47.38C86.39 47.41 86.37 47.45 86.39 47.47C86.34 47.86 86.02 47.97 85.67 48L84.72 48.1C84.72 48.1 84.66 48.1 84.63 48.1L84.38 48.22L82.27 48.38C82.27 48.38 82.2 48.38 82.18 48.38C82.15 48.43 82.1 48.46 82.04 48.47C81.78 48.52 79.6 48.52 79.4 48.45C79.38 48.45 79.36 48.42 79.34 48.39C79.25 48.39 79.15 48.36 79.06 48.37C78.19 48.33 77.29 48.17 76.51 47.82C76.43 47.79 76.33 47.74 76.25 47.73C75.89 47.62 75.57 47.46 75.28 47.26C74.53 46.94 73.98 46.39 73.41 45.85C72.47 44.71 72.12 43.15 72.26 41.7C72.32 36.91 72.33 32.11 72.3 27.3L72.26 27.35C72.23 27.43 72.2 27.43 72.17 27.35C72.12 27.3 72.1 27.23 72.09 27.16L71.94 27.06C70.61 27.01 69.28 26.99 67.94 27.01C67.74 27.01 67.51 26.92 67.42 26.73C67.35 26.58 67.35 23.75 67.4 23.47C67.45 23.19 67.53 23.08 67.82 23H71.79L72.09 22.91C72.11 22.88 72.15 22.85 72.18 22.82C72.18 22.73 72.21 22.73 72.27 22.8C72.34 21.24 72.36 19.62 72.27 18.08C72.15 17.75 72.49 17.62 72.77 17.56L78.7 17.58C78.95 17.69 79.01 17.89 79.02 18.15L79.06 22.92L79.46 22.99H85.58C85.97 23.07 86 23.14 86.05 23.51C86.12 23.95 86.11 26.03 86.04 26.46C85.97 26.89 85.9 26.94 85.45 27.01C83.38 26.99 81.31 27.01 79.25 27.04L79.05 27.15L79.03 27.19Z" fill="var(--fill-0, white)"/>
<path id="Vector_41" d="M102.19 23.43C102.19 23.43 102.26 23.43 102.28 23.43C103.23 23.47 104.22 23.75 105.02 24.26C105.02 24.32 105.13 24.36 105.18 24.36L105.58 24.66C105.59 24.75 105.7 24.79 105.77 24.83C107.14 25.91 107.55 27.25 107.62 28.91C107.64 29.46 107.69 32.24 107.52 32.48C107.46 32.56 107.37 32.65 107.27 32.68C105.37 32.72 103.47 32.72 101.58 32.67C101.46 32.38 101.41 32.06 101.43 31.71L101.4 29.39C101.21 27.96 100.69 27.05 99.26 26.6C99.23 26.6 99.19 26.6 99.17 26.6C98.5 26.47 97.84 26.47 97.19 26.6C97.17 26.59 97.12 26.6 97.1 26.6C96.76 26.77 96.41 26.96 96.06 27.19C95.73 27.44 95.5 27.74 95.22 28.03C94.95 28.57 94.73 29.09 94.76 29.73C94.76 35.87 94.74 42.02 94.69 48.17L94.56 48.33H94.37C94.29 48.37 94.29 48.37 94.37 48.33C94.45 48.13 94.5 48.13 94.56 48.33C94.64 48.45 94.5 48.57 94.37 48.57H88.52C88.35 48.54 88.15 48.36 88.1 48.2L88.12 23.5C88.26 23.32 88.48 23.24 88.76 23.27H101.38C101.7 23.27 101.98 23.31 102.22 23.43H102.19Z" fill="var(--fill-0, white)"/>
<path id="Vector_42" d="M65.07 23.6C65.06 31.78 65.07 39.97 65.08 48.17C65.08 48.26 64.98 48.33 64.96 48.41C64.84 48.53 64.69 48.58 64.5 48.57H59.22C59 48.58 58.84 48.53 58.75 48.41C58.7 48.36 58.61 48.3 58.58 48.23L58.5 48.14C58.46 40.03 58.45 31.92 58.48 23.81L58.56 23.69L58.67 23.59L58.77 23.62C58.7 30.39 58.68 37.2 58.7 44.05V24.12C58.68 23.77 58.75 23.57 58.92 23.5L58.94 23.41C58.92 23.49 58.89 23.49 58.85 23.42C58.74 23.37 58.82 23.26 58.94 23.27H64.78C64.97 23.32 65.23 23.41 65.08 23.6H65.07Z" fill="var(--fill-0, white)"/>
<path id="Vector_43" d="M55.82 4.63C55.83 4.71 55.71 4.82 55.63 4.82C51.85 4.74 47.89 4.74 44.11 4.82C44.08 4.82 44.05 4.82 44.02 4.82C43.9 4.9 43.7 4.95 43.64 4.82C43.64 4.76 43.54 4.73 43.56 4.63H55.62L55.64 0.38H5.41C5.26 0.38 5.2 0.36 5.2 0.28C5.31 0.2 5.44 0.15 5.62 0.11C22.35 0.05 39.06 0.06 55.76 0.15C55.75 1.64 55.76 3.13 55.82 4.62V4.63Z" fill="var(--fill-0, white)"/>
<path id="Vector_44" d="M55.82 4.63C55.59 3.2 55.81 1.7 55.71 0.19H5.7C5.46 0.19 5.35 0.3 5.2 0.29C4.84 0.27 4.51 0.45 4.16 0.49C4.12 0.19 5.16 0.24 5.34 0.15C5.61 0.02 5.72 0 6.08 0H55.8L55.82 4.63Z" fill="var(--fill-0, white)"/>
<path id="Vector_45" d="M65.17 48.16L65.07 47.25C65.07 39.37 65.07 31.48 65.07 23.6C65.07 23.47 64.96 23.32 64.77 23.32H58.94C58.86 23.32 58.82 23.38 58.84 23.42C58.81 23.5 58.78 23.5 58.75 23.42C58.75 23.37 58.72 23.22 58.85 23.22L64.87 23.24C65.02 23.24 65.35 23.55 65.35 23.72V47.84C65.35 48.04 65.28 48.11 65.17 48.16Z" fill="var(--fill-0, white)"/>
<path id="Vector_46" d="M65.17 48.16C65.17 48.16 65.11 48.16 65.09 48.17C64.99 48.07 64.98 47.97 64.98 47.75V23.72C65.01 23.62 65.02 23.59 65.08 23.6C65.3 31.75 65.11 39.97 65.18 48.16H65.17Z" fill="var(--fill-0, white)"/>
<path id="Vector_47" d="M58.58 48.23C58.45 48.21 58.37 48.15 58.37 47.94V23.91C58.37 23.75 58.52 23.74 58.56 23.7L58.58 48.23Z" fill="var(--fill-0, white)"/>
<path id="Vector_48" d="M102.19 23.43C101.91 23.49 101.66 23.33 101.3 23.33H88.73C88.54 23.33 88.12 23.37 88.12 23.55V48.12C88.12 48.28 88.38 48.52 88.5 48.52H94.33C94.44 48.52 94.53 48.4 94.53 48.34C94.71 43.69 94.57 34.62 94.64 30.02C94.65 29.13 94.88 28.37 95.19 28.04C95.23 28.39 94.81 28.62 94.81 29.29V48.12C94.81 48.33 94.56 48.44 94.49 48.62H88.48C88.27 48.62 88.12 48.4 88.01 48.22V23.81C88.01 23.58 88.01 23.5 88.11 23.38C88.23 23.24 88.34 23.23 88.58 23.23H102.07C102.21 23.23 102.19 23.38 102.17 23.44L102.19 23.43Z" fill="var(--fill-0, white)"/>
<path id="Vector_49" d="M7.85 18.04L6.79 17.86H0.09L0.13 43.2C0.13 43.91 0.46 44.77 0.78 45.32C0.74 45.32 0.68 45.32 0.64 45.3C0.58 45.26 0.58 45.16 0.54 45.07L0.27 44.4C0.15 44.1 0.18 43.81 0.01 43.49V17.75H6.99C7.22 17.82 7.42 17.85 7.66 17.85C7.78 17.88 7.84 17.95 7.86 18.04H7.85Z" fill="var(--fill-0, white)"/>
<path id="Vector_50" d="M55.72 23.41C55.75 23.33 55.78 23.33 55.81 23.41C55.81 23.44 55.81 23.47 55.81 23.5C55.78 29.89 55.75 36.28 55.72 42.66C55.65 42.66 55.62 42.59 55.62 42.46V23.51L48.82 23.45L55.72 23.4V23.41Z" fill="var(--fill-0, white)"/>
<path id="Vector_51" d="M58.93 23.41C59.01 23.45 59 23.48 58.91 23.5C58.81 23.7 58.75 23.9 58.75 24.19L58.69 48.23L58.66 23.59C58.66 23.53 58.74 23.47 58.74 23.42H58.83L58.92 23.41H58.93Z" fill="var(--fill-0, white)"/>
<path id="Vector_52" d="M5.1 48.42C5.38 48.42 5.63 48.43 5.97 48.53H26.31C26.37 48.4 26.33 48.32 26.33 48.25C26.43 48.35 26.65 48.38 26.5 48.63H5.4C5.2 48.63 5.14 48.54 5.1 48.43V48.42Z" fill="var(--fill-0, white)"/>
<path id="Vector_53" d="M55.24 45.03C55.59 44.29 55.72 43.48 55.72 42.67V23.62C55.72 23.53 55.78 23.49 55.81 23.5V42.83C55.81 43.53 55.77 44.09 55.47 44.7C55.43 44.77 55.48 44.9 55.42 44.96C55.38 45.01 55.32 45.04 55.23 45.02L55.24 45.03Z" fill="var(--fill-0, white)"/>
<path id="Vector_54" d="M50.81 48.42C50.79 48.54 50.71 48.62 50.51 48.62H32.46C32.54 48.23 32.68 48.14 32.76 47.89C32.76 47.88 33.57 46.44 33.65 46.55L32.63 48.53H49.95C50.29 48.53 50.55 48.45 50.82 48.43L50.81 48.42Z" fill="var(--fill-0, white)"/>
<path id="Vector_55" d="M72.25 41.72C72.25 43.2 72.52 44.64 73.4 45.87C72.85 45.35 72.54 44.7 72.35 43.87C72.29 43.6 72.16 43.26 72.16 42.91V27.37H72.24C72.32 32.03 72.32 37 72.24 41.72H72.25Z" fill="var(--fill-0, white)"/>
<path id="Vector_56" d="M134.77 33.06V40.21C134.73 40.34 134.65 40.39 134.56 40.41V32.97C134.57 32.75 134.36 32.54 134.55 32.38C134.54 32.61 134.6 32.84 134.77 33.06Z" fill="var(--fill-0, white)"/>
<g id="Vector_57">
</g>
<path id="Vector_58" d="M14.26 14.14C13.86 14.26 13.47 14.08 13.01 14.08L0 14.06V5.11C0 4.97 0.14 4.92 0.2 4.91C0.23 5.09 0.09 5.26 0.09 5.49V13.97L13.46 13.98C13.76 13.98 14.02 14.12 14.25 14.13L14.26 14.14Z" fill="var(--fill-0, white)"/>
<path id="Vector_59" d="M109.36 40.6C109.36 42.25 109.92 43.09 110.7 44.37C110.54 44.61 109.7 42.87 109.66 42.76C109.52 42.4 109.27 41.61 109.27 41.24V29.49C109.27 29.18 109.44 28.94 109.52 28.68C109.73 27.93 110.09 27.25 110.7 26.82C110.03 27.74 109.36 28.75 109.36 29.93C109.44 33.43 109.44 37.09 109.36 40.6Z" fill="var(--fill-0, white)"/>
<path id="Vector_60" d="M79.03 27.19C79.07 27.08 79.16 27 79.33 27H85.45C85.57 27 85.91 26.91 85.91 26.78L85.93 23.32C85.93 23.19 85.66 23.13 85.55 23.13H79.43C79.32 23.13 78.97 23.04 78.97 22.91L78.95 18.31C78.95 18.09 78.84 17.67 78.57 17.67L72.91 17.64C72.59 17.64 72.25 17.8 72.25 18.12C72.33 19.67 72.33 21.28 72.25 22.84C72.23 22.85 72.18 22.84 72.16 22.86V17.94C72.16 17.82 72.44 17.61 72.56 17.57H78.57C78.85 17.55 79.04 17.78 79.04 18.06V22.96L85.53 22.97C85.93 22.97 86.16 23.37 86.13 23.69V26.43C86.13 26.88 85.8 27.11 85.38 27.11H79.44L79.04 27.19H79.03Z" fill="var(--fill-0, white)"/>
<path id="Vector_61" d="M99.26 26.61C100.76 26.88 101.47 28.28 101.49 29.77L101.53 32.48C101.53 32.58 101.72 32.67 101.82 32.67H107.18C107.38 32.67 107.57 32.29 107.57 32.11C107.46 28.96 108.17 27.19 105.77 24.84C106.53 25.26 107.03 26.1 107.35 26.95C107.46 27.25 107.64 27.54 107.64 27.89V32.39C107.64 32.53 107.33 32.77 107.19 32.77H101.47L101.34 31.83C101.18 30.66 101.94 27.82 99.7 26.86C99.51 26.78 99.26 26.85 99.25 26.62L99.26 26.61Z" fill="var(--fill-0, white)"/>
<path id="Vector_62" d="M55.63 4.82H44.11C44.11 4.82 44.14 4.73 44.22 4.73H55.52C55.6 4.73 55.64 4.79 55.63 4.82Z" fill="var(--fill-0, white)"/>
<path id="Vector_63" d="M72.08 22.95C72.03 23.05 71.94 23.13 71.78 23.13H67.81C67.6 23.13 67.43 23.29 67.43 23.5V26.52C67.43 26.79 67.64 26.98 67.93 26.98H71.78C71.94 26.99 72.04 27.07 72.07 27.18C71.96 27.18 71.83 27.09 71.68 27.09H68C67.73 27.09 67.5 27.02 67.34 26.8V23.32C67.45 23.18 67.61 22.94 67.81 22.94H72.08V22.95Z" fill="var(--fill-0, white)"/>
<path id="Vector_64" d="M55.82 23.41H55.73C55.73 23.41 55.7 23.31 55.63 23.31H48.85C48.63 23.31 48.45 23.43 48.27 23.42C48.28 23.36 48.34 23.22 48.47 23.22H55.73C55.85 23.22 55.83 23.36 55.82 23.41Z" fill="var(--fill-0, white)"/>
<path id="Vector_65" d="M124.28 23.43C123.9 23.42 123.52 23.42 123.1 23.37C121.58 23.18 119.93 23.48 119.18 23.43C119.2 23.31 119.3 23.22 119.46 23.22H124C124.16 23.22 124.27 23.31 124.28 23.43Z" fill="var(--fill-0, white)"/>
<path id="Vector_66" d="M123.9 48.41C123.89 48.54 123.79 48.62 123.62 48.62H119.75C119.58 48.62 119.48 48.54 119.46 48.41C119.88 48.45 120.3 48.41 120.75 48.47C121.39 48.57 122.07 48.57 122.71 48.47C123.13 48.4 123.52 48.45 123.9 48.41Z" fill="var(--fill-0, white)"/>
<path id="Vector_67" d="M64.97 48.41C64.94 48.53 64.88 48.62 64.7 48.62H58.85C58.72 48.62 58.79 48.45 58.76 48.41L59.23 48.52H64.5L64.97 48.4V48.41Z" fill="var(--fill-0, white)"/>
<path id="Vector_68" d="M86.4 47.39C86.4 46.66 86.46 45.92 86.38 45.14C86.35 44.83 85.94 44.93 85.75 44.95C85.78 44.74 85.98 44.73 86.17 44.74C86.73 44.78 86.57 45.95 86.57 46.03C86.57 46.41 86.75 47.61 86.39 47.39H86.4Z" fill="var(--fill-0, white)"/>
<path id="Vector_69" d="M82.16 48.41C82.15 48.53 82.04 48.62 81.88 48.62H79.61C79.45 48.62 79.34 48.53 79.33 48.42H82.16V48.41Z" fill="var(--fill-0, white)"/>
<path id="Vector_70" d="M134.71 32.29C134.65 32.3 134.6 32.29 134.56 32.29C134.62 31.57 134.58 30.84 134.56 30.12C134.93 30.07 134.71 32.29 134.71 32.29Z" fill="var(--fill-0, white)"/>
<path id="Vector_71" d="M85.66 44.96C84.61 45.19 83.5 45.04 82.45 44.96C82.81 44.92 83.19 44.9 83.59 45.04H84.43C84.85 44.9 85.27 44.93 85.66 44.97V44.96Z" fill="var(--fill-0, white)"/>
<path id="Vector_72" d="M84.62 48.13C84.57 48.43 84.22 48.3 83.96 48.33C83.36 48.39 82.81 48.5 82.26 48.41C82.4 48.28 82.62 48.37 82.83 48.34L84.62 48.13Z" fill="var(--fill-0, white)"/>
<path id="Vector_73" d="M84.71 48.12C85.43 47.86 86.06 48.12 86.39 47.48C86.45 47.66 86.33 47.82 86.25 47.94C86.16 48.07 84.91 48.18 84.71 48.12Z" fill="var(--fill-0, white)"/>
<path id="Vector_74" d="M126.45 23.71L124.94 23.51C124.73 23.48 124.51 23.57 124.38 23.44C124.45 23.37 126.69 23.43 126.45 23.71Z" fill="var(--fill-0, white)"/>
<path id="Vector_75" d="M99.16 26.6C98.79 26.7 98.43 26.57 98.02 26.54C97.72 26.52 97.44 26.72 97.17 26.6C97.79 26.33 98.52 26.39 99.15 26.6H99.16Z" fill="var(--fill-0, white)"/>
<path id="Vector_76" d="M124 48.41C124.14 48.27 124.35 48.37 124.56 48.34L126.08 48.13C126.37 48.39 124.03 48.48 124 48.41Z" fill="var(--fill-0, white)"/>
<path id="Vector_77" d="M119.37 48.41C119.31 48.48 117.14 48.41 117.39 48.13L119.37 48.41Z" fill="var(--fill-0, white)"/>
<path id="Vector_78" d="M118.9 23.44C118.31 23.57 117.71 23.63 117.1 23.71C116.95 23.44 118.71 23.4 118.9 23.44Z" fill="var(--fill-0, white)"/>
<path id="Vector_79" d="M23.44 26.24C23.07 26.02 22.99 25.5 22.74 25.14C22.2 24.36 22.08 23.87 21.68 23.27C21.54 23.06 21.4 22.88 21.45 22.65C22.21 23.78 22.84 25.02 23.44 26.25V26.24Z" fill="var(--fill-0, white)"/>
<path id="Vector_80" d="M134.55 40.5C134.62 41.98 134.03 43.6 132.96 44.66C133.92 43.44 134.37 42.03 134.55 40.5Z" fill="var(--fill-0, white)"/>
<path id="Vector_81" d="M79.05 48.4C78.4 48.5 77.75 48.33 77.09 48.12C76.86 48.04 76.54 48.11 76.5 47.85C77.34 48.13 78.19 48.27 79.05 48.4Z" fill="var(--fill-0, white)"/>
<path id="Vector_82" d="M0.21 4.82C0.11 4.33 0.77 2.87 1.43 2.37C0.9 3.13 0.46 3.92 0.21 4.82Z" fill="var(--fill-0, white)"/>
<path id="Vector_83" d="M10.2 20.59C9.86 20.25 9.58 19.85 9.34 19.44C9.37 19.14 10.37 20.61 10.2 20.59Z" fill="var(--fill-0, white)"/>
<path id="Vector_84" d="M39.45 8.5C39.6 8.07 39.91 7.69 40.23 7.36C40.25 7.62 39.66 8.31 39.45 8.5Z" fill="var(--fill-0, white)"/>
<path id="Vector_85" d="M31.06 22.66C31.22 22.25 31.5 21.89 31.72 21.51C31.88 21.6 31.19 22.74 31.06 22.66Z" fill="var(--fill-0, white)"/>
<path id="Vector_86" d="M21.27 22.37C21.06 22.33 21.02 22.13 20.92 21.95L19.64 19.64L18.85 18.16C18.73 17.94 18.56 17.77 18.62 17.53L21.27 22.37Z" fill="var(--fill-0, white)"/>
<path id="Vector_87" d="M105.02 24.26C104.14 23.85 103.24 23.56 102.28 23.43C102.73 23.22 105.05 23.96 105.02 24.26Z" fill="var(--fill-0, white)"/>
<path id="Vector_88" d="M132.88 44.75C132.76 45.14 132.37 45.42 132.02 45.6C132.26 45.28 132.6 45.03 132.88 44.75Z" fill="var(--fill-0, white)"/>
<path id="Vector_89" d="M126.17 48.13C126.56 47.97 126.99 47.96 127.4 47.85C127.7 48.1 126.26 48.15 126.17 48.13Z" fill="var(--fill-0, white)"/>
<path id="Vector_90" d="M112.87 46.44C112.49 46.48 111.54 45.4 111.17 45.12C111.01 45 111.05 44.83 110.97 44.73L112.18 45.89L112.87 46.44Z" fill="var(--fill-0, white)"/>
<path id="Vector_91" d="M38.04 10.86C38.22 10.39 38.47 9.9 38.81 9.53C38.75 9.65 38.82 9.83 38.67 9.97C38.39 10.23 38.36 10.68 38.04 10.86Z" fill="var(--fill-0, white)"/>
<path id="Vector_92" d="M44.01 4.82C44.03 5.01 42.96 5.1 42.88 5.08C43.03 4.89 43.19 4.98 43.64 4.82C43.75 4.78 43.9 4.85 44.02 4.82H44.01Z" fill="var(--fill-0, white)"/>
<path id="Vector_93" d="M117.01 23.72C116.66 23.89 116.25 23.89 115.88 24C115.58 23.75 116.96 23.7 117.01 23.72Z" fill="var(--fill-0, white)"/>
<path id="Vector_94" d="M128.72 24.28L126.55 23.72C127.11 23.62 128.75 24.2 128.71 24.13C128.74 24.17 128.72 24.24 128.72 24.28Z" fill="var(--fill-0, white)"/>
<path id="Vector_95" d="M24.65 45.32C24.33 44.84 24.01 44.34 23.79 43.8C23.95 43.75 23.97 43.9 24.03 44.04C24.24 44.54 24.7 44.97 24.65 45.32Z" fill="var(--fill-0, white)"/>
<path id="Vector_96" d="M18.71 35.03C18.39 34.52 18.07 33.98 17.84 33.42C18.11 33.59 18.71 34.74 18.71 35.03Z" fill="var(--fill-0, white)"/>
<path id="Vector_97" d="M27.2 29.16C27.16 29.55 26.8 29.87 26.43 29.96C25.81 30.11 25.08 29.36 25.15 29.17C25.58 29.48 25.65 29.89 26.3 29.84C26.71 29.81 26.88 29.55 27.2 29.16Z" fill="var(--fill-0, white)"/>
<path id="Vector_98" d="M33.73 46.37C33.77 45.88 34.2 45.52 34.38 45.03C34.48 44.75 34.58 44.47 34.87 44.36C34.44 44.99 34.19 45.75 33.73 46.36V46.37Z" fill="var(--fill-0, white)"/>
<path id="Vector_99" d="M15.58 29.65L14.4 27.7C14.31 27.55 14.22 27.43 14.23 27.28C14.48 27.48 14.59 27.8 14.77 28.08L15.41 29.14C15.51 29.31 15.6 29.46 15.58 29.64V29.65Z" fill="var(--fill-0, white)"/>
<path id="Vector_100" d="M30.3 23.98C30.4 23.59 30.68 23.28 30.88 22.92C30.98 23.09 30.49 23.91 30.3 23.98Z" fill="var(--fill-0, white)"/>
<path id="Vector_101" d="M12.65 24.55L10.71 21.49C10.59 21.31 10.51 21.13 10.47 20.96C10.56 20.98 11.9 23.13 12.01 23.31L12.45 24.1C12.55 24.27 12.7 24.37 12.66 24.55H12.65Z" fill="var(--fill-0, white)"/>
<path id="Vector_102" d="M117.29 48.13C117.17 48.16 115.9 48.1 116.16 47.85L117.29 48.13Z" fill="var(--fill-0, white)"/>
<path id="Vector_103" d="M46.96 24.08C46.71 24.33 46.47 24.61 46.19 24.84C46.06 24.73 46.84 23.94 46.96 24.08Z" fill="var(--fill-0, white)"/>
<path id="Vector_104" d="M43.26 29.66C43.22 29.46 43.35 29.29 43.46 29.09L44.21 27.76L44.93 26.49C45.05 26.28 45.09 26 45.35 25.96L43.26 29.65V29.66Z" fill="var(--fill-0, white)"/>
<path id="Vector_105" d="M52.04 48.13C52.26 48.46 50.88 48.41 51 48.4L52.04 48.13Z" fill="var(--fill-0, white)"/>
<path id="Vector_106" d="M115.78 24C115.02 24.27 114.24 24.47 113.51 24.84C113.51 24.77 113.52 24.69 113.58 24.66C113.63 24.63 113.69 24.64 113.76 24.61L114.5 24.29C114.93 24.11 115.34 23.95 115.78 24Z" fill="var(--fill-0, white)"/>
<path id="Vector_107" d="M22.38 41.36C22.15 41.13 22.01 40.8 21.89 40.5C22.16 40.69 22.38 41.02 22.38 41.36Z" fill="var(--fill-0, white)"/>
<path id="Vector_108" d="M19.27 35.98C19.09 35.71 18.86 35.44 18.79 35.12C19.06 35.32 19.28 35.64 19.27 35.98Z" fill="var(--fill-0, white)"/>
<path id="Vector_109" d="M15.3 14.42C15.2 14.45 14.28 14.38 14.36 14.14C14.68 14.16 15.03 14.24 15.3 14.42Z" fill="var(--fill-0, white)"/>
<path id="Vector_110" d="M23.7 43.62L22.59 41.8C22.51 41.67 22.46 41.56 22.46 41.44C22.91 41.98 23.18 42.64 23.61 43.24C23.7 43.37 23.72 43.49 23.7 43.61V43.62Z" fill="var(--fill-0, white)"/>
<path id="Vector_111" d="M34.65 16.62C34.73 16.3 34.96 16.03 35.14 15.76C35.14 16.1 34.93 16.43 34.65 16.62Z" fill="var(--fill-0, white)"/>
<path id="Vector_112" d="M79.8 43.62C79.33 43.21 79.12 42.64 79.03 42.01C79.42 42.11 79.01 42.47 79.6 43.25C79.7 43.38 79.8 43.48 79.8 43.62Z" fill="var(--fill-0, white)"/>
<path id="Vector_113" d="M52.13 48.12C53.81 47.32 54.18 46.86 55.15 45.29C55.06 46.21 53.2 48.1 52.13 48.12Z" fill="var(--fill-0, white)"/>
<path id="Vector_114" d="M41 33.62C40.94 33.28 41.29 33 41.54 32.45C41.67 32.16 41.79 31.84 42.05 31.72C41.74 32.37 41.37 33 41 33.62Z" fill="var(--fill-0, white)"/>
<path id="Vector_115" d="M82.35 44.95C82.06 44.93 81.72 44.88 81.5 44.67C81.56 44.67 82.42 44.71 82.35 44.95Z" fill="var(--fill-0, white)"/>
<path id="Vector_116" d="M116.06 47.84C116 47.86 115.02 47.82 115.21 47.57C115.49 47.69 115.82 47.66 116.06 47.84Z" fill="var(--fill-0, white)"/>
<path id="Vector_117" d="M134.55 30.02C134.34 29.24 134.05 28.5 133.71 27.76C134 27.85 134.67 29.63 134.55 30.02Z" fill="var(--fill-0, white)"/>
<path id="Vector_118" d="M40.89 6.52C41.17 6.2 41.44 5.82 41.84 5.66C42.07 5.59 40.79 6.73 40.89 6.52Z" fill="var(--fill-0, white)"/>
<path id="Vector_119" d="M20.86 38.71C20.51 38.29 20.27 37.77 20.01 37.28C20.27 37.3 20.3 37.54 20.39 37.76C20.53 38.1 20.86 38.35 20.86 38.7V38.71Z" fill="var(--fill-0, white)"/>
<path id="Vector_120" d="M128.34 47.57C128.21 47.86 127.78 47.84 127.49 47.84C127.74 47.67 128.07 47.69 128.34 47.57Z" fill="var(--fill-0, white)"/>
<path id="Vector_121" d="M42.13 31.64C42.06 31.27 42.49 30.96 42.7 30.41C42.79 30.18 42.87 29.99 43.09 29.92C42.83 30.52 42.46 31.07 42.14 31.64H42.13Z" fill="var(--fill-0, white)"/>
<path id="Vector_122" d="M129.57 24.56C129.32 24.46 129.04 24.44 128.81 24.29C128.94 24.26 129.71 24.31 129.57 24.56Z" fill="var(--fill-0, white)"/>
<path id="Vector_123" d="M45.53 25.7C45.53 25.4 45.74 25.15 46.01 25.03C45.92 25.29 45.7 25.49 45.53 25.7Z" fill="var(--fill-0, white)"/>
<path id="Vector_124" d="M128.44 47.56L129.76 47C129.97 47.15 128.72 47.59 128.44 47.56Z" fill="var(--fill-0, white)"/>
<path id="Vector_125" d="M27.38 28.89C27.9 27.81 28.57 26.8 29.19 25.77C29.15 26.29 28.03 27.83 27.79 28.34C27.68 28.58 27.63 28.82 27.38 28.89Z" fill="var(--fill-0, white)"/>
<path id="Vector_126" d="M25.78 47.3C25.67 47.12 25.44 46.82 25.39 46.63C25.65 46.74 25.79 47.02 25.78 47.3Z" fill="var(--fill-0, white)"/>
<path id="Vector_127" d="M36.18 42.12C36.11 41.75 36.55 41.42 36.75 40.89C36.83 40.66 36.92 40.47 37.14 40.4C36.85 40.98 36.53 41.56 36.19 42.12H36.18Z" fill="var(--fill-0, white)"/>
<path id="Vector_128" d="M37.58 11.61C37.68 11.38 37.79 11.13 37.97 10.94C37.98 11.22 37.85 11.5 37.58 11.61Z" fill="var(--fill-0, white)"/>
<path id="Vector_129" d="M31.91 21.24C32.09 20.84 32.33 20.46 32.58 20.1C32.75 20.07 31.98 21.42 31.91 21.24Z" fill="var(--fill-0, white)"/>
<path id="Vector_130" d="M17.57 33.04C16.95 32.01 16.29 31 15.76 29.92C15.99 29.97 16.03 30.2 16.14 30.41C16.52 31.15 16.98 31.82 17.4 32.54C17.5 32.71 17.6 32.86 17.57 33.04Z" fill="var(--fill-0, white)"/>
<path id="Vector_131" d="M97.09 26.61C97.16 26.95 96.71 26.72 96.43 27C96.31 27.12 96.19 27.19 96.05 27.19C96.37 26.95 96.65 26.64 97.09 26.6V26.61Z" fill="var(--fill-0, white)"/>
<path id="Vector_132" d="M115.12 47.56C115.04 47.57 114.32 47.54 114.46 47.29C114.68 47.37 114.95 47.39 115.12 47.56Z" fill="var(--fill-0, white)"/>
<path id="Vector_133" d="M39.86 35.61C39.79 35.24 40.23 34.91 40.43 34.38C40.51 34.15 40.6 33.95 40.82 33.89C40.53 34.47 40.21 35.05 39.87 35.61H39.86Z" fill="var(--fill-0, white)"/>
<path id="Vector_134" d="M42.78 5.08C42.8 5.37 42.43 5.34 42.21 5.38C42.38 5.25 42.58 5.14 42.78 5.08Z" fill="var(--fill-0, white)"/>
<path id="Vector_135" d="M18.44 17.27C18.19 17.19 18.06 16.94 18.05 16.69C18.22 16.86 18.35 17.05 18.44 17.27Z" fill="var(--fill-0, white)"/>
<path id="Vector_136" d="M76.24 47.75C76.37 47.89 74.86 47.31 75.27 47.28C75.6 47.42 75.94 47.54 76.24 47.75Z" fill="var(--fill-0, white)"/>
<path id="Vector_137" d="M112.96 25.12L112 25.7C112.13 25.34 112.59 25.12 112.96 25.12Z" fill="var(--fill-0, white)"/>
<path id="Vector_138" d="M25.22 46.35C25.03 46.05 24.78 45.76 24.72 45.4C24.97 45.66 25.22 45.97 25.22 46.35Z" fill="var(--fill-0, white)"/>
<path id="Vector_139" d="M21.82 40.41C21.52 39.91 21.17 39.43 20.96 38.89C21.1 38.86 21.17 38.96 21.22 39.11C21.41 39.69 21.86 40 21.82 40.4V40.41Z" fill="var(--fill-0, white)"/>
<path id="Vector_140" d="M131.36 46.15C131.23 46.28 130.76 46.77 130.42 46.71C130.69 46.47 131.02 46.27 131.36 46.15Z" fill="var(--fill-0, white)"/>
<path id="Vector_141" d="M13.61 26.25C13.29 25.77 12.99 25.26 12.75 24.73C12.84 24.56 13.76 26.25 13.61 26.25Z" fill="var(--fill-0, white)"/>
<path id="Vector_142" d="M3.88 0.58L2.55 1.34C2.42 1.18 3.63 0.5 3.88 0.58Z" fill="var(--fill-0, white)"/>
<path id="Vector_143" d="M33.71 18.22C33.92 17.68 34.28 17.2 34.57 16.7C34.77 16.63 33.74 18.44 33.71 18.22Z" fill="var(--fill-0, white)"/>
<path id="Vector_144" d="M19.84 37.01C19.65 36.71 19.4 36.42 19.34 36.06C19.57 36.32 19.83 36.65 19.84 37.01Z" fill="var(--fill-0, white)"/>
<path id="Vector_145" d="M38.73 37.59C38.57 37.53 39.22 36.43 39.3 36.53C39.11 36.88 38.93 37.24 38.73 37.59Z" fill="var(--fill-0, white)"/>
<path id="Vector_146" d="M29.45 25.39C29.55 25 29.82 24.68 30.02 24.33C30.1 24.57 29.89 24.72 29.77 24.93C29.65 25.14 29.65 25.32 29.44 25.39H29.45Z" fill="var(--fill-0, white)"/>
<path id="Vector_147" d="M37.88 39.1C37.72 39.04 38.37 37.94 38.45 38.04C38.32 38.42 38.07 38.75 37.88 39.1Z" fill="var(--fill-0, white)"/>
<path id="Vector_148" d="M37.31 40.14C37.29 39.78 37.56 39.45 37.79 39.19C37.72 39.54 37.49 39.84 37.31 40.14Z" fill="var(--fill-0, white)"/>
<path id="Vector_149" d="M111.61 25.99C111.51 26.12 111.36 26.16 111.24 26.26C111.19 26.2 111.12 26.13 111.2 26.05C111.31 25.94 111.39 26.04 111.61 25.99Z" fill="var(--fill-0, white)"/>
<path id="Vector_150" d="M24.2 27.56C23.94 27.37 23.75 27.03 23.73 26.71C23.96 26.94 24.09 27.25 24.2 27.56Z" fill="var(--fill-0, white)"/>
<path id="Vector_151" d="M32.86 19.64C32.88 19.44 32.97 19.25 33.15 19.15C33.2 19.39 33.05 19.54 32.86 19.64Z" fill="var(--fill-0, white)"/>
<path id="Vector_152" d="M132.5 26.35C132.2 26.13 131.89 25.95 131.64 25.68C131.8 25.68 132.53 26.12 132.5 26.35Z" fill="var(--fill-0, white)"/>
<path id="Vector_153" d="M36.54 13.41C36.74 12.87 37.11 12.4 37.4 11.89C37.49 12.1 36.73 13.26 36.54 13.41Z" fill="var(--fill-0, white)"/>
<path id="Vector_154" d="M35.05 44.1C34.89 44.04 35.55 42.94 35.63 43.04C35.44 43.39 35.28 43.77 35.05 44.1Z" fill="var(--fill-0, white)"/>
<path id="Vector_155" d="M35.69 14.82C35.87 14.5 35.98 14.1 36.26 13.86C36.23 14.04 35.88 14.83 35.69 14.82Z" fill="var(--fill-0, white)"/>
<path id="Vector_156" d="M39.4 36.37C39.35 36.15 39.47 35.94 39.69 35.88C39.64 36.07 39.52 36.22 39.4 36.37Z" fill="var(--fill-0, white)"/>
<path id="Vector_157" d="M25.14 29.08C25.14 29.44 24.14 27.73 24.38 27.83L25.14 29.08Z" fill="var(--fill-0, white)"/>
<path id="Vector_158" d="M47.89 23.52C47.62 23.7 47.35 23.89 47.04 24C47.08 23.86 47.62 23.42 47.89 23.52Z" fill="var(--fill-0, white)"/>
<path id="Vector_159" d="M131.55 25.61C131.24 25.52 130.96 25.3 130.7 25.11C130.78 24.99 131.61 25.53 131.55 25.61Z" fill="var(--fill-0, white)"/>
<path id="Vector_160" d="M130.33 46.72C130.36 46.97 130.05 46.97 129.85 46.99C129.93 46.82 130.18 46.82 130.33 46.72Z" fill="var(--fill-0, white)"/>
<path id="Vector_161" d="M114.2 47.19H114.17C114.08 47.19 113.97 47.24 113.87 47.19C113.82 47.16 113.8 47.07 113.8 47C113.95 47.03 114.09 47.09 114.2 47.19Z" fill="var(--fill-0, white)"/>
<path id="Vector_162" d="M81.41 44.67C81.27 44.63 81.1 44.6 81.02 44.47C81.12 44.5 81.24 44.43 81.35 44.47C81.42 44.5 81.43 44.58 81.41 44.66V44.67Z" fill="var(--fill-0, white)"/>
<path id="Vector_163" d="M105.58 24.66C105.4 24.65 105.27 24.51 105.18 24.36C105.33 24.36 105.55 24.47 105.58 24.66Z" fill="var(--fill-0, white)"/>
<path id="Vector_164" d="M15.79 14.62C15.69 14.62 15.58 14.65 15.45 14.62C15.38 14.61 15.37 14.51 15.39 14.42C15.55 14.43 15.66 14.53 15.79 14.61V14.62Z" fill="var(--fill-0, white)"/>
<path id="Vector_165" d="M16.74 15.29C16.55 15.31 16.4 15.18 16.35 15C16.54 15.02 16.62 15.17 16.74 15.29Z" fill="var(--fill-0, white)"/>
<path id="Vector_166" d="M17.87 16.51C17.69 16.46 17.55 16.31 17.58 16.12C17.7 16.23 17.86 16.32 17.87 16.51Z" fill="var(--fill-0, white)"/>
<path id="Vector_167" d="M35.21 15.67C35.21 15.51 35.25 15.33 35.42 15.28C35.4 15.44 35.37 15.6 35.21 15.67Z" fill="var(--fill-0, white)"/>
<path id="Vector_168" d="M9.07 18.99C8.94 18.95 8.87 18.83 8.87 18.7C8.92 18.73 9.03 18.69 9.07 18.76C9.11 18.83 9.05 18.94 9.07 19V18.99Z" fill="var(--fill-0, white)"/>
<path id="Vector_169" d="M33.22 19.07C33.22 18.91 33.26 18.73 33.43 18.68C33.43 18.84 33.37 19 33.22 19.07Z" fill="var(--fill-0, white)"/>
<path id="Vector_170" d="M130.23 24.84C130.09 24.81 129.92 24.79 129.84 24.65C130.05 24.61 130.14 24.68 130.23 24.84Z" fill="var(--fill-0, white)"/>
<path id="Vector_171" d="M133.44 27.39C133.29 27.34 133.24 27.21 133.16 27.09C133.25 27.09 133.34 27.12 133.4 27.19C133.45 27.25 133.41 27.34 133.44 27.39Z" fill="var(--fill-0, white)"/>
<path id="Vector_172" d="M35.9 42.57C35.86 42.69 35.83 42.81 35.71 42.88C35.71 42.8 35.68 42.72 35.71 42.63C35.73 42.56 35.83 42.55 35.9 42.57Z" fill="var(--fill-0, white)"/>
<path id="Vector_173" d="M1.91 1.9C1.83 2.01 1.73 2.11 1.62 2.19C1.62 2.1 1.62 1.99 1.7 1.94C1.76 1.9 1.85 1.92 1.91 1.9Z" fill="var(--fill-0, white)"/>
<path id="Vector_174" d="M14.07 27.02C13.96 26.92 13.88 26.78 13.87 26.63C14.05 26.69 14.11 26.83 14.07 27.02Z" fill="var(--fill-0, white)"/>
<path id="Vector_175" d="M132.97 26.82C132.84 26.76 132.74 26.66 132.68 26.53C132.75 26.53 132.87 26.53 132.92 26.62C132.96 26.68 132.96 26.76 132.97 26.82Z" fill="var(--fill-0, white)"/>
<path id="Vector_176" d="M13.58 13.83L0.18 13.89L0.24 5.66L0.29 13.77L13.58 13.83Z" fill="var(--fill-0, white)"/>
<g id="Vector_177">
</g>
<g id="Vector_178">
</g>
<g id="Vector_179">
</g>
<path id="Vector_180" d="M109.45 30.04V40.49C109.45 40.57 109.39 40.61 109.36 40.6V29.93C109.36 29.93 109.45 29.96 109.45 30.04Z" fill="var(--fill-0, white)"/>
<g id="Vector_181">
</g>
<path id="Vector_182" d="M72.25 41.72V27.37C72.25 27.29 72.22 27.17 72.34 27.19V41.51C72.34 41.63 72.32 41.71 72.25 41.71V41.72Z" fill="var(--fill-0, white)"/>
<g id="Vector_183">
</g>
<path id="Vector_184" d="M72.25 22.85V18.13C72.3 18.13 72.37 18.22 72.36 18.32C72.25 19.89 72.48 21.43 72.25 22.85Z" fill="var(--fill-0, white)"/>
<path id="Vector_185" d="M94.54 48.33H94.35C94.43 48.25 94.44 47.99 94.44 47.85L94.5 29.46L94.55 48.34L94.54 48.33Z" fill="var(--fill-0, white)"/>
<path id="Vector_186" d="M94.35 48.33C94.35 48.33 94.32 48.43 94.25 48.43L88.49 48.37L94.35 48.32V48.33Z" fill="var(--fill-0, white)"/>
<g id="Vector_187">
</g>
<path id="Vector_188" d="M101.67 32.48C101.59 31.43 101.59 30.37 101.67 29.26C101.75 30.31 101.75 31.37 101.67 32.48Z" fill="var(--fill-0, white)"/>
<path id="Vector_189" d="M58.92 23.51C58.92 23.51 58.92 23.44 58.94 23.42L64.8 23.47L58.92 23.52V23.51Z" fill="var(--fill-0, white)"/>
</g>
<defs>
<clipPath id="clip0_83_1265">
<rect width="134.78" height="48.62" fill="white"/>
</clipPath>
</defs>
</svg>
