<svg preserveAspectRatio="xMidYMid meet"  overflow="visible" style="display: block;" viewBox="0 0 204 53" fill="none" xmlns="http://www.w3.org/2000/svg">
<g id="Capa_1" clip-path="url(#clip0_83_1647)">
<path id="Vector" d="M45.1409 25.3792C45.1409 25.2071 45.055 24.99 45.1185 24.7505L45.0475 24.3015C44.0209 15.485 36.8197 7.88096 27.8565 7.88096C27.0016 7.80611 26.1094 7.80611 25.2583 7.88096C25.1164 7.94832 24.9335 7.83979 24.7207 7.90341C24.5565 7.88844 24.4071 7.91089 24.2727 7.97451C15.8023 9.01108 9.04535 15.7469 8.06354 24.2117L7.99634 24.6607C8.04487 24.7992 7.97021 24.9788 7.97021 25.1996C7.89555 26.0528 7.89555 26.9509 7.97021 27.8004C7.97021 27.9351 8.06354 28.1372 7.99634 28.3393L8.06354 28.7883C8.22033 30.3974 8.84002 32.74 9.56798 34.2107L10.2213 35.5204C10.3034 35.6888 10.4191 35.8797 10.5162 36.0369L11.0911 36.9686C11.7183 37.9903 13.5848 40.0484 14.5256 40.7782L15.9068 41.8521C18.143 43.5848 22.4883 45.0741 25.3479 45.1228C26.1393 45.2051 26.9755 45.2201 27.7669 45.1228C37.0437 44.5502 45.1409 37.0435 45.1409 27.6245C45.2155 26.8873 45.2155 26.1127 45.1409 25.3792ZM34.0722 25.9855C30.8542 26.2474 28.0059 23.8412 27.7259 20.6117C27.4459 17.401 29.809 14.4746 33.1389 14.2089C36.439 13.947 39.2089 16.428 39.4777 19.6014C39.7577 22.8682 37.3125 25.7235 34.0722 25.9855Z" fill="var(--fill-0, white)"/>
<path id="Vector_2" d="M126.366 42.2488L119.639 30.3787C122.719 29.0578 124.522 26.79 124.936 23.4932L125.007 23.0479C124.985 22.8084 125.033 22.5689 125.033 22.3294C125.108 21.5061 125.108 20.6379 125.033 19.8147C125.033 19.5602 124.944 19.2571 125.007 19.0064L124.94 18.561C124.85 17.7602 124.701 16.9819 124.451 16.1698C123.204 12.1358 119.37 10.9233 115.626 10.5716C115.484 10.5341 115.335 10.5117 115.178 10.5042C114.973 10.5117 114.76 10.5042 114.554 10.4817C114.23 10.4368 113.901 10.4144 113.569 10.4181L99.0732 10.4106C98.9986 21.0533 98.9836 31.7072 99.0247 42.3798C101.929 42.406 104.804 42.3873 107.641 42.3237L107.652 32.0215C109.033 31.9392 110.493 31.943 111.882 32.0141C112.225 32.5567 113.08 34.3267 113.375 35.0078C113.748 35.8797 114.241 36.6393 114.666 37.4926L117.078 42.3199C120.109 42.391 123.144 42.4135 126.191 42.3873C126.336 42.3948 126.486 42.3761 126.366 42.2488ZM114.693 24.7169C114.006 24.9713 113.3 25.0237 112.561 25.0724H107.644V17.3748H112.315C113.11 17.3785 113.871 17.4683 114.61 17.7003C115.435 17.9511 116.014 18.5573 116.231 19.4068C116.626 20.956 116.723 24.1481 114.696 24.7169H114.693Z" fill="var(--fill-0, white)"/>
<path id="Vector_3" d="M192.823 10.4144H182.37L181.993 11.2901C181.855 11.9374 181.598 12.5324 181.377 13.1611L180.791 14.8114L180.13 16.7536L179.402 18.8005L178.876 20.3423L178.152 22.3893L177.566 24.0582L176.905 25.9967L176.237 27.8378L175.651 29.5854L175.024 31.3779L174.34 33.2976L173.68 35.236L173.09 36.8863L172.425 38.8248L171.723 40.8118L171.249 42.2488L171.208 42.3424C174.113 42.3873 177.021 42.3873 179.94 42.3386L182.072 35.4306C185.558 35.352 189.142 35.3558 192.67 35.4306C192.995 36.1304 193.181 36.9013 193.402 37.6684L193.726 38.7798L194.391 40.8081C194.559 41.3282 194.645 41.8521 194.899 42.3237C197.908 42.4097 200.991 42.4135 204 42.3199L192.823 10.4144ZM184.005 28.6686L187.354 17.9361L190.71 28.6461L184.005 28.6686Z" fill="var(--fill-0, white)"/>
<path id="Vector_4" d="M155.216 10.3059C156.384 10.231 157.627 10.231 158.799 10.3059C159.128 10.3059 159.456 10.347 159.785 10.3283C160.031 10.3283 160.27 10.3508 160.502 10.3957C160.681 10.4219 160.86 10.4219 161.039 10.4144C161.226 10.4219 161.405 10.4443 161.577 10.4817C161.726 10.5005 161.875 10.5117 162.025 10.5042C162.182 10.5117 162.331 10.5341 162.473 10.5753C162.589 10.5865 162.715 10.609 162.831 10.594L163.279 10.6651C164.929 10.8747 166.575 11.1291 168.244 11.5221L168.27 14.8825C168.289 16.1736 168.263 17.4571 168.192 18.7257L163.283 17.996C162.559 17.8875 161.894 17.7677 161.218 17.734C161.058 17.7265 160.909 17.7041 160.77 17.6629C160.651 17.648 160.532 17.6367 160.412 17.6442C160.255 17.6367 160.106 17.6143 159.964 17.5769C159.785 17.5581 159.606 17.5432 159.427 17.5544C159.24 17.5507 159.061 17.5282 158.889 17.487C158.68 17.4683 158.471 17.4421 158.262 17.4646C157.896 17.4646 157.538 17.4384 157.187 17.3972C156.952 17.3673 156.701 17.4421 156.47 17.3972L155.753 17.4646C154.577 17.5319 152.819 17.9473 152.685 19.3731C152.651 19.7024 152.651 20.0317 152.685 20.361C152.692 21.0159 153.155 21.5323 153.786 21.8092C156.373 22.9356 162.185 23.0666 165.974 25.1921C168.173 26.427 168.864 28.1896 169.181 30.5022L169.252 31.0411C169.185 31.2207 169.275 31.4789 169.275 31.6698C169.349 32.4332 169.349 33.2377 169.275 34.0011C169.275 35.2622 168.939 36.5084 168.36 37.6797C166.714 41.0102 162.932 41.9756 159.602 42.3424L159.064 42.4135C158.889 42.3499 158.62 42.4284 158.437 42.4359C158.142 42.4771 157.844 42.4995 157.541 42.5033H154.137C153.771 42.4995 153.413 42.4771 153.062 42.4359C152.763 42.4135 152.464 42.406 152.166 42.4135C151.923 42.4135 151.684 42.3873 151.449 42.3461C151.27 42.3237 151.091 42.3199 150.911 42.3237C150.695 42.3199 150.486 42.2937 150.284 42.2526C150.139 42.2301 149.986 42.2226 149.836 42.2338C149.679 42.2264 149.53 42.2039 149.388 42.1665C149.239 42.1515 149.09 42.1366 148.94 42.144C148.78 42.1366 148.63 42.1141 148.492 42.0729L146.551 41.826C145.842 41.7361 145.166 41.6688 144.49 41.4405L144.472 34.3417C145.524 34.4914 146.51 34.6785 147.51 34.757C147.619 34.5999 147.869 34.641 147.951 34.8094C148.011 34.8057 148.078 34.8169 148.138 34.8244L148.813 34.7458C149.87 34.8132 151.068 34.9554 152.065 35.2547C152.128 35.2585 152.199 35.2772 152.259 35.2735C152.416 35.2809 152.565 35.3034 152.707 35.3408C152.886 35.3595 153.065 35.3745 153.245 35.3633C153.435 35.367 153.614 35.3895 153.782 35.4306C153.984 35.4793 154.208 35.4194 154.409 35.4531C154.895 35.4007 155.384 35.367 155.876 35.3483L156.104 35.5242C156.168 35.5242 156.231 35.513 156.294 35.5167C156.38 35.4381 156.481 35.3708 156.597 35.3483C157.142 35.2547 157.986 35.3034 158.527 35.3595C158.579 35.3483 158.635 35.3221 158.691 35.3184L158.784 35.1275C159.468 35.0265 160.233 34.6859 160.453 33.9749L160.651 33.8964C160.658 33.8402 160.677 33.7803 160.692 33.7242C160.655 33.5408 160.621 33.3537 160.61 33.1629C160.517 31.666 160.222 31.3255 158.755 30.8091C157.851 30.5396 156.94 30.2927 156.029 30.0719C156.003 29.9297 155.873 29.8997 155.637 29.9821C152.961 29.5293 149.93 29.0091 147.574 27.5946C145.726 26.4832 144.767 25.0237 144.292 22.9393C144.222 22.6362 144.154 22.1348 144.304 21.8728C144.304 21.667 144.326 21.3751 144.296 21.1581C144.255 20.7165 144.233 20.2675 144.229 19.8109C144.251 19.6276 144.24 19.4554 144.229 19.272C144.229 18.9689 144.251 18.6696 144.296 18.3739C144.722 12.7907 148.933 10.8373 153.969 10.3882C154.137 10.3246 154.316 10.3021 154.506 10.3208C154.719 10.2759 155.003 10.2984 155.223 10.2984L155.216 10.3059Z" fill="var(--fill-0, white)"/>
<path id="Vector_5" d="M93.4213 17.3935C88.9565 17.4496 84.4842 17.4608 80.0045 17.4384C80.1165 17.4758 80.0829 17.5058 79.941 17.5319C79.9186 19.5602 79.9335 21.5809 79.9858 23.5942L92.6448 23.6092L91.5846 29.5068C91.5323 29.7987 91.4689 30.0569 91.3793 30.375L79.9821 30.4049L79.9373 30.5995V42.376C77.1076 42.4172 74.2891 42.4022 71.4892 42.3311V10.4219H94.7055L93.4213 17.3972V17.3935Z" fill="var(--fill-0, white)"/>
<path id="Vector_6" d="M139.436 10.4106C139.503 21.0383 139.525 31.6885 139.499 42.3648L130.726 42.3835C130.689 31.7184 130.708 21.0571 130.782 10.4106H139.439H139.436Z" fill="var(--fill-0, white)"/>
<path id="Vector_7" d="M46.5221 9.76326L45.7531 8.91753C45.223 8.33376 44.6966 7.79863 44.1105 7.26724L43.2892 6.52256C42.3373 5.65812 40.1721 4.17623 39.0111 3.60743C38.7386 3.47645 38.4661 3.43155 38.2533 3.18082C38.1711 3.08353 37.9397 3.15089 37.8538 3.0723C37.3163 2.5746 34.1506 1.52305 33.2509 1.29478C33.2136 0.853209 33.2061 0.456542 33.2509 0.00374214H52.9879V19.781C52.5735 19.8446 52.1778 19.8147 51.7709 19.7997C51.5096 19.5303 51.5768 19.1411 51.4312 18.8305C51.2072 18.3627 50.7256 16.5927 50.2104 15.6459C49.8819 15.0472 49.6467 14.4335 49.3033 13.8609L48.2916 12.1732C48.0863 11.8289 46.8133 10.0926 46.5147 9.76326H46.5221Z" fill="var(--fill-0, white)"/>
<path id="Vector_8" d="M38.2458 49.8042L38.6116 49.6096C39.6681 49.0633 40.6611 48.4795 41.6093 47.7722L42.4269 47.1622C42.7367 46.9302 43.8791 46.0396 44.006 45.7664C43.9127 45.9648 45.2454 44.7411 45.5702 44.2845C45.7158 44.0825 45.8688 43.9552 46.0368 43.7756C46.7162 43.0534 48.1236 41.1636 48.6463 40.2767C48.8105 39.9998 49.5012 38.8996 49.5571 38.6676C49.6766 38.1811 50.0201 37.8031 50.2254 37.3578C50.5278 36.6992 51.2856 34.757 51.461 34.1022C51.5469 33.7803 51.5618 33.4623 51.7746 33.1891C52.1927 33.1891 52.5735 33.1517 52.9916 33.2115V52.9925H33.1949C33.2248 52.4948 33.1688 52.1618 33.292 51.7015C34.8599 51.316 36.8384 50.5489 38.2383 49.8042H38.2458Z" fill="var(--fill-0, white)"/>
<path id="Vector_9" d="M19.8938 1.26859C10.8671 3.66356 3.79658 10.7287 1.38499 19.781C0.955678 19.8334 0.556235 19.8334 0.10826 19.781V0H19.849L19.8938 1.26859Z" fill="var(--fill-0, white)"/>
<path id="Vector_10" d="M9.75464 46.3914C9.88156 46.44 9.97489 46.5298 10.0421 46.6496C10.9642 47.4616 11.9422 48.1839 12.9801 48.7265C13.0808 48.7564 13.1742 48.8125 13.26 48.8986C15.3282 50.1859 17.5457 51.0915 19.8639 51.7314C19.8751 52.1992 19.905 52.5734 19.8453 52.9925H0.0149325C-0.0522637 52.8615 0.10826 52.7979 0.10826 52.6333V33.219C0.556235 33.1666 0.955678 33.1404 1.38125 33.234C2.78491 38.3645 5.67061 43.0683 9.75464 46.3876V46.3914Z" fill="var(--fill-0, white)"/>
<path id="Vector_11" d="M200.726 13.4455C201.122 13.206 201.32 12.8543 201.241 12.4202C201.073 11.451 199.834 11.6905 199.042 11.6979V14.5158C199.132 14.6542 199.561 14.658 199.629 14.5195C199.752 14.2576 199.584 13.9133 199.692 13.6439C199.752 13.4979 200.05 13.5353 200.144 13.6551C200.364 13.9283 200.416 14.3287 200.704 14.5495C200.887 14.6879 201.189 14.5831 201.327 14.5569L200.726 13.4455ZM200.439 12.9291C200.181 13.0563 199.923 13.0189 199.692 12.989C199.651 12.7196 199.643 12.4988 199.696 12.2518C199.976 12.1994 200.476 12.1732 200.573 12.4576C200.622 12.5923 200.625 12.8318 200.439 12.9291Z" fill="var(--fill-0, white)"/>
<path id="Vector_12" d="M202.107 11.2451C200.95 10.0813 199.027 10.1375 197.934 11.4061C196.941 12.5586 197.224 14.6206 198.479 15.4064C199.998 16.3607 201.969 15.8068 202.626 14.2913C203.074 13.2547 202.91 12.0534 202.107 11.2451ZM200.132 15.3578C198.822 15.369 197.911 14.4185 197.896 13.1761C197.878 11.9 198.811 10.942 200.088 10.9345C201.372 10.9233 202.328 11.8851 202.309 13.1761C202.294 14.3923 201.413 15.3428 200.132 15.3578Z" fill="var(--fill-0, white)"/>
<path id="Vector_13" d="M200.726 13.4455C201.122 13.206 201.32 12.8543 201.241 12.4202C201.073 11.451 199.834 11.6905 199.042 11.6979V14.5158C199.132 14.6542 199.561 14.658 199.629 14.5195C199.752 14.2576 199.584 13.9133 199.692 13.6439C199.752 13.4979 200.05 13.5353 200.144 13.6551C200.364 13.9283 200.416 14.3287 200.704 14.5495C200.887 14.6879 201.189 14.5831 201.327 14.5569L200.726 13.4455ZM200.439 12.9291C200.181 13.0563 199.923 13.0189 199.692 12.989C199.651 12.7196 199.643 12.4988 199.696 12.2518C199.976 12.1994 200.476 12.1732 200.573 12.4576C200.622 12.5923 200.625 12.8318 200.439 12.9291Z" fill="var(--fill-0, white)"/>
<path id="Vector_14" d="M200.726 13.4455C201.122 13.206 201.32 12.8543 201.241 12.4202C201.073 11.451 199.834 11.6905 199.042 11.6979V14.5158C199.132 14.6542 199.561 14.658 199.629 14.5195C199.752 14.2576 199.584 13.9133 199.692 13.6439C199.752 13.4979 200.05 13.5353 200.144 13.6551C200.364 13.9283 200.416 14.3287 200.704 14.5495C200.887 14.6879 201.189 14.5831 201.327 14.5569L200.726 13.4455ZM200.439 12.9291C200.181 13.0563 199.923 13.0189 199.692 12.989C199.651 12.7196 199.643 12.4988 199.696 12.2518C199.976 12.1994 200.476 12.1732 200.573 12.4576C200.622 12.5923 200.625 12.8318 200.439 12.9291Z" fill="var(--fill-0, white)"/>
</g>
<defs>
<clipPath id="clip0_83_1647">
<rect width="204" height="53" fill="white"/>
</clipPath>
</defs>
</svg>
